<svg width="466" height="218" viewBox="0 0 466 218" fill="none" xmlns="http://www.w3.org/2000/svg">
<path d="M182.817 83.239L182.036 82.469L174.935 75.2582C177.141 84.6159 181.576 93.5302 188.218 101.161V87.2762C186.609 86.3194 185.069 85.2226 183.599 83.9625L182.794 83.239H182.817Z" fill="white"/>
<path d="M188.218 34.7005V20.839C181.576 28.4698 177.141 37.3841 174.935 46.7418L182.036 39.5544C183.92 37.6408 186.011 36.0306 188.218 34.7238V34.7005Z" fill="white"/>
<path d="M207.175 106.552H193.525C201.039 113.296 209.818 117.776 219.01 120.04L211.932 112.829C210.048 110.915 208.462 108.792 207.175 106.552Z" fill="white"/>
<path d="M283.331 38.761L284.113 39.531L291.214 46.7185C289.008 37.3608 284.572 28.4465 277.931 20.839V34.7238C279.54 35.6573 281.079 36.7774 282.527 38.0375L283.331 38.761Z" fill="white"/>
<path d="M211.22 9.91786L211.932 9.17112L219.01 1.96033C209.795 4.20057 201.017 8.7044 193.502 15.4485H207.153C208.279 13.4883 209.611 11.6214 211.197 9.91786H211.22Z" fill="white"/>
<path d="M277.931 87.2995V101.161C284.572 93.5302 289.008 84.6159 291.214 75.2582L284.113 82.469C282.228 84.3825 280.137 85.9927 277.931 87.2995Z" fill="white"/>
<path d="M254.215 9.17112C256.099 11.0847 257.685 13.2082 258.972 15.4485H272.622C265.108 8.7044 256.329 4.20057 247.114 1.96033L254.215 9.17112Z" fill="white"/>
<path d="M254.927 112.082L254.215 112.829L247.114 120.04C256.329 117.8 265.108 113.296 272.622 106.552H258.972C257.846 108.512 256.513 110.379 254.927 112.082Z" fill="white"/>
<path d="M215.954 15.9384C219.584 16.5918 223.008 17.9453 226.065 19.8122L233.074 12.6947L240.083 19.8122C243.139 17.9453 246.563 16.6152 250.194 15.9384C249.803 15.4484 249.367 14.9816 248.93 14.5383L235.716 1.12012C234.246 -0.373374 231.902 -0.373374 230.431 1.12012L217.218 14.5383C216.781 14.9816 216.344 15.4484 215.954 15.9384Z" fill="white"/>
<path d="M250.194 106.062C246.563 105.408 243.139 104.055 240.083 102.188L233.074 109.305L226.065 102.188C223.008 104.055 219.584 105.385 215.954 106.062C216.344 106.552 216.781 107.018 217.218 107.462L230.431 120.88C231.902 122.373 234.246 122.373 235.716 120.88L248.93 107.462C249.367 107.018 249.803 106.552 250.194 106.062Z" fill="white"/>
<path d="M292.041 58.3165L278.827 44.8983L278.092 44.1983L277.448 43.6149C276.805 47.3253 275.472 50.779 273.634 53.8827L280.643 61.0001L273.634 68.1175C275.472 71.2212 276.782 74.6983 277.448 78.3853C277.931 77.9653 278.391 77.5452 278.85 77.0785L292.064 63.6604L292.386 63.3104C293.535 61.8169 293.42 59.67 292.064 58.2931L292.041 58.3165Z" fill="white"/>
<path d="M188.7 43.5915C188.217 44.0115 187.757 44.4315 187.298 44.8983L174.107 58.3164L173.786 58.6664C172.637 60.1599 172.751 62.3068 174.107 63.6836L187.321 77.1018L188.056 77.8019L188.7 78.3853C189.343 74.6748 190.676 71.2211 192.514 68.0941L185.505 60.9767L192.514 53.8592C190.676 50.7556 189.366 47.2785 188.7 43.5681V43.5915Z" fill="white"/>
<path d="M195.662 98.7342H210.622C214.184 98.7342 217.562 97.8941 220.55 96.4006L219.837 95.6772C217.884 93.6936 216.367 91.4534 215.287 89.0265C211.335 90.9633 206.922 92.0601 202.234 92.0601C202.234 87.2996 203.314 82.7958 205.245 78.782C203.406 77.9419 201.66 76.8218 200.051 75.445L199.385 74.8616L198.695 74.1848L197.983 73.4614C196.512 76.4951 195.685 79.9255 195.685 83.5425V98.7342H195.662Z" fill="white"/>
<path d="M255.457 98.7342H270.417V82.7024C270.279 79.4121 269.475 76.285 268.119 73.4847L267.407 74.2082C265.453 76.1917 263.247 77.7319 260.857 78.8287C262.765 82.8424 263.845 87.3229 263.845 92.0834C259.157 92.0834 254.745 90.9867 250.792 89.0498C249.827 91.22 248.494 93.2502 246.84 95.0704L246.265 95.6772L245.553 96.4006C248.54 97.8941 251.918 98.7342 255.48 98.7342H255.457Z" fill="white"/>
<path d="M210.599 22.8224H195.639V38.8541C195.777 42.1445 196.581 45.2715 197.937 48.0718L198.649 47.3484C200.602 45.3649 202.808 43.8247 205.198 42.7279C203.291 38.7141 202.211 34.2336 202.211 29.4731C206.899 29.4731 211.311 30.5699 215.264 32.5068C216.229 30.3365 217.562 28.3063 219.216 26.4861L219.791 25.8794L220.503 25.156C217.516 23.6625 214.138 22.8224 210.576 22.8224H210.599Z" fill="white"/>
<path d="M270.417 22.8224H255.457C251.895 22.8224 248.517 23.6625 245.529 25.156L246.242 25.8794C248.195 27.8629 249.712 30.1032 250.792 32.5301C254.744 30.5932 259.156 29.4965 263.844 29.4965C263.844 34.257 262.764 38.7608 260.834 42.7746C262.672 43.6147 264.419 44.7348 266.028 46.1116L266.694 46.695L267.383 47.3717L268.096 48.0951C269.566 45.0615 270.394 41.6311 270.394 38.014V22.8224H270.417Z" fill="white"/>
<path d="M250.011 73.2047C254.331 73.6481 258.812 72.2013 262.122 68.8409L270.05 60.79L262.122 52.7391L261.524 52.1557C258.284 49.2154 254.079 47.9319 250.034 48.3753C249.46 51.4323 248.081 54.2093 246.104 56.4495C249.299 56.8463 252.401 58.2931 254.837 60.79C252.378 63.287 249.299 64.7338 246.104 65.1072C248.058 67.3474 249.46 70.1244 250.034 73.2047H250.011Z" fill="white"/>
<path d="M240.956 31.2701L233.028 23.2192L225.1 31.2701C221.791 34.6305 220.366 39.181 220.803 43.5448C223.813 44.1282 226.548 45.5283 228.754 47.5352C229.145 44.2915 230.569 41.1412 233.028 38.6676C235.487 41.1645 236.912 44.2915 237.28 47.5352C239.486 45.5517 242.243 44.1282 245.254 43.5448C245.69 39.1576 244.265 34.6072 240.956 31.2468V31.2701Z" fill="white"/>
<path d="M225.1 90.3098L233.028 98.3607L240.956 90.3098C244.265 86.9494 245.69 82.3989 245.254 78.0351C242.243 77.4517 239.509 76.0516 237.303 74.0447C236.912 77.2884 235.487 80.4387 233.028 82.9123C230.569 80.4154 229.145 77.2884 228.777 74.0447C226.571 76.0282 223.836 77.4517 220.803 78.0351C220.366 82.4223 221.791 86.9728 225.1 90.3331V90.3098Z" fill="white"/>
<path d="M216.091 48.5387V48.352C211.748 47.9086 207.267 49.3555 203.958 52.7158L196.03 60.7667L203.958 68.8176L204.555 69.401C207.796 72.3413 212.001 73.6248 216.045 73.1814C216.62 70.1244 217.999 67.3474 219.975 65.1072C216.781 64.7105 213.678 63.2636 211.243 60.7667C213.701 58.2698 216.781 56.8229 219.975 56.4496C218.045 54.256 216.689 51.5257 216.091 48.5387Z" fill="white"/>
<path d="M234.801 68.4638C238.865 67.4898 241.382 63.3547 240.422 59.228C239.463 55.1012 235.391 52.5453 231.328 53.5194C227.264 54.4934 224.747 58.6284 225.706 62.7552C226.665 66.8819 230.737 69.4378 234.801 68.4638Z" fill="white"/>
<path d="M444.093 163.459C457.727 163.459 466 170.353 466 181.843C466 193.256 457.727 200.15 444.093 200.15H429.692V217.079H424.024V163.459H444.093ZM443.94 195.171C454.663 195.171 460.332 190.269 460.332 181.843C460.332 173.264 454.663 168.362 443.94 168.362H429.692V195.171H443.94Z" fill="white"/>
<path d="M383.206 217.538C366.967 217.538 355.018 205.895 355.018 190.269C355.018 174.643 366.967 163 383.206 163C399.292 163 411.318 174.566 411.318 190.269C411.318 205.972 399.292 217.538 383.206 217.538ZM383.206 212.483C396.075 212.483 405.65 203.061 405.65 190.269C405.65 177.477 396.075 168.056 383.206 168.056C370.261 168.056 360.61 177.477 360.61 190.269C360.61 203.061 370.261 212.483 383.206 212.483Z" fill="white"/>
<path d="M318.95 217.538C302.711 217.538 290.762 205.895 290.762 190.269C290.762 174.643 302.711 163 318.95 163C335.036 163 347.062 174.566 347.062 190.269C347.062 205.972 335.036 217.538 318.95 217.538ZM318.95 212.483C331.819 212.483 341.394 203.061 341.394 190.269C341.394 177.477 331.819 168.056 318.95 168.056C306.005 168.056 296.353 177.477 296.353 190.269C296.353 203.061 306.005 212.483 318.95 212.483Z" fill="white"/>
<path d="M251.452 217.079V163.459H257.12V212.176H287.147V217.079H251.452Z" fill="white"/>
<path d="M199.062 217.538C191.019 217.538 183.129 214.704 179.146 210.568L181.367 206.202C185.197 209.955 192.015 212.713 199.062 212.713C209.096 212.713 213.462 208.5 213.462 203.214C213.462 188.507 180.448 197.546 180.448 177.707C180.448 169.817 186.576 163 200.211 163C206.262 163 212.543 164.762 216.833 167.749L214.918 172.268C210.322 169.281 204.96 167.826 200.211 167.826C190.406 167.826 186.04 172.192 186.04 177.554C186.04 192.261 219.054 183.375 219.054 202.908C219.054 210.798 212.773 217.538 199.062 217.538Z" fill="white"/>
<path d="M145.213 217.538C131.502 217.538 123.153 209.572 123.153 194.176V163.459H128.821V193.946C128.821 206.661 134.796 212.483 145.213 212.483C155.707 212.483 161.682 206.661 161.682 193.946V163.459H167.197V194.176C167.197 209.572 158.925 217.538 145.213 217.538Z" fill="white"/>
<path d="M89.0748 163.459C102.709 163.459 110.982 170.353 110.982 181.843C110.982 193.256 102.709 200.15 89.0748 200.15H74.6742V217.079H69.0059V163.459H89.0748ZM88.9216 195.171C99.6454 195.171 105.314 190.269 105.314 181.843C105.314 173.264 99.6454 168.362 88.9216 168.362H74.6742V195.171H88.9216Z" fill="white"/>
<path d="M28.1884 217.538C11.9494 217.538 0 205.895 0 190.269C0 174.643 11.9494 163 28.1884 163C44.2742 163 56.3002 174.566 56.3002 190.269C56.3002 205.972 44.2742 217.538 28.1884 217.538ZM28.1884 212.483C41.057 212.483 50.6319 203.061 50.6319 190.269C50.6319 177.477 41.057 168.056 28.1884 168.056C15.2432 168.056 5.59172 177.477 5.59172 190.269C5.59172 203.061 15.2432 212.483 28.1884 212.483Z" fill="white"/>
</svg>
