<svg width="573" height="112" viewBox="0 0 573 112" fill="none" xmlns="http://www.w3.org/2000/svg">
<path d="M553.037 31.4138C565.319 31.4138 572.771 37.6238 572.771 47.9738C572.771 58.2548 565.319 64.4648 553.037 64.4648H540.065V79.7138H534.959V31.4138H553.037ZM552.899 59.9798C562.559 59.9798 567.665 55.5638 567.665 47.9738C567.665 40.2458 562.559 35.8298 552.899 35.8298H540.065V59.9798H552.899Z" fill="white"/>
<path d="M498.191 80.128C483.563 80.128 472.799 69.64 472.799 55.564C472.799 41.488 483.563 31 498.191 31C512.681 31 523.514 41.419 523.514 55.564C523.514 69.709 512.681 80.128 498.191 80.128ZM498.191 75.574C509.783 75.574 518.408 67.087 518.408 55.564C518.408 44.041 509.783 35.554 498.191 35.554C486.53 35.554 477.836 44.041 477.836 55.564C477.836 67.087 486.53 75.574 498.191 75.574Z" fill="white"/>
<path d="M440.309 80.128C425.681 80.128 414.917 69.64 414.917 55.564C414.917 41.488 425.681 31 440.309 31C454.799 31 465.632 41.419 465.632 55.564C465.632 69.709 454.799 80.128 440.309 80.128ZM440.309 75.574C451.901 75.574 460.526 67.087 460.526 55.564C460.526 44.041 451.901 35.554 440.309 35.554C428.648 35.554 419.954 44.041 419.954 55.564C419.954 67.087 428.648 75.574 440.309 75.574Z" fill="white"/>
<path d="M379.507 79.7138V31.4138H384.613V75.2978H411.661V79.7138H379.507Z" fill="white"/>
<path d="M332.314 80.128C325.069 80.128 317.962 77.575 314.374 73.849L316.375 69.916C319.825 73.297 325.966 75.781 332.314 75.781C341.353 75.781 345.286 71.986 345.286 67.225C345.286 53.977 315.547 62.119 315.547 44.248C315.547 37.141 321.067 31 333.349 31C338.8 31 344.458 32.587 348.322 35.278L346.597 39.349C342.457 36.658 337.627 35.347 333.349 35.347C324.517 35.347 320.584 39.28 320.584 44.11C320.584 57.358 350.323 49.354 350.323 66.949C350.323 74.056 344.665 80.128 332.314 80.128Z" fill="white"/>
<path d="M283.808 80.1278C271.457 80.1278 263.936 72.9518 263.936 59.0828V31.4138H269.042V58.8758C269.042 70.3298 274.424 75.5738 283.808 75.5738C293.261 75.5738 298.643 70.3298 298.643 58.8758V31.4138H303.611V59.0828C303.611 72.9518 296.159 80.1278 283.808 80.1278Z" fill="white"/>
<path d="M233.238 31.4138C245.52 31.4138 252.972 37.6238 252.972 47.9738C252.972 58.2548 245.52 64.4648 233.238 64.4648H220.266V79.7138H215.16V31.4138H233.238ZM233.1 59.9798C242.76 59.9798 247.866 55.5638 247.866 47.9738C247.866 40.2458 242.76 35.8298 233.1 35.8298H220.266V59.9798H233.1Z" fill="white"/>
<path d="M178.392 80.128C163.764 80.128 153 69.64 153 55.564C153 41.488 163.764 31 178.392 31C192.882 31 203.715 41.419 203.715 55.564C203.715 69.709 192.882 80.128 178.392 80.128ZM178.392 75.574C189.984 75.574 198.609 67.087 198.609 55.564C198.609 44.041 189.984 35.554 178.392 35.554C166.731 35.554 158.037 44.041 158.037 55.564C158.037 67.087 166.731 75.574 178.392 75.574Z" fill="white"/>
<path d="M9.01294 76.4161L8.29566 75.7091L1.77686 69.0894C3.80211 77.68 7.87373 85.8636 13.9706 92.869V80.1223C12.4938 79.2439 11.0804 78.237 9.73021 77.0802L8.99184 76.4161H9.01294Z" fill="white"/>
<path d="M13.9706 31.8562V19.1309C7.87373 26.1362 3.80211 34.3198 1.77686 42.9105L8.29566 36.3122C10.0256 34.5555 11.9453 33.0773 13.9706 31.8776V31.8562Z" fill="white"/>
<path d="M31.3741 97.8179H18.8428C25.7413 104.009 33.8002 108.122 42.2387 110.2L35.741 103.581C34.0111 101.824 32.5555 99.8745 31.3741 97.8179Z" fill="white"/>
<path d="M101.288 35.5838L102.005 36.2908L108.524 42.8891C106.499 34.2984 102.427 26.1148 96.3301 19.1309V31.8776C97.8068 32.7345 99.2203 33.7628 100.549 34.9197L101.288 35.5838Z" fill="white"/>
<path d="M35.0876 9.10484L35.7416 8.4193L42.2393 1.79956C33.7796 3.85618 25.7208 7.99084 18.8223 14.1821H31.3536C32.3873 12.3826 33.6109 10.6687 35.0665 9.10484H35.0876Z" fill="white"/>
<path d="M96.3301 80.1437V92.869C102.427 85.8636 106.499 77.68 108.524 69.0894L102.005 75.7091C100.275 77.4658 98.3553 78.944 96.3301 80.1437Z" fill="white"/>
<path d="M74.5588 8.4193C76.2887 10.176 77.7444 12.1255 78.9258 14.1821H91.4571C84.5585 7.99084 76.4997 3.85618 68.04 1.79956L74.5588 8.4193Z" fill="white"/>
<path d="M75.2128 102.895L74.5588 103.581L68.04 110.2C76.4997 108.144 84.5585 104.009 91.4571 97.8179H78.9258C77.8921 99.6174 76.6685 101.331 75.2128 102.895Z" fill="white"/>
<path d="M39.4326 14.632C42.7659 15.2318 45.9092 16.4744 48.7151 18.1882L55.1495 11.6542L61.5839 18.1882C64.3897 16.4744 67.5331 15.2533 70.8663 14.632C70.5077 14.1821 70.1068 13.7536 69.706 13.3466L57.5756 1.02831C56.2254 -0.34277 54.0735 -0.34277 52.7234 1.02831L40.5929 13.3466C40.1921 13.7536 39.7913 14.1821 39.4326 14.632Z" fill="white"/>
<path d="M70.8663 97.368C67.5331 96.7682 64.3897 95.5256 61.5839 93.8118L55.1495 100.346L48.7151 93.8118C45.9092 95.5256 42.7659 96.7467 39.4326 97.368C39.7913 97.8179 40.1921 98.2463 40.5929 98.6534L52.7234 110.972C54.0735 112.343 56.2254 112.343 57.5756 110.972L69.706 98.6534C70.1068 98.2463 70.5077 97.8179 70.8663 97.368Z" fill="white"/>
<path d="M109.284 53.5364L97.153 41.2181L96.478 40.5754L95.8873 40.0398C95.2966 43.4461 94.073 46.6167 92.3853 49.466L98.8197 56L92.3853 62.5341C94.073 65.3833 95.2755 68.5754 95.8873 71.9602C96.3303 71.5746 96.7522 71.189 97.1741 70.7605L109.305 58.4422L109.6 58.1209C110.655 56.7498 110.549 54.7789 109.305 53.5149L109.284 53.5364Z" fill="white"/>
<path d="M14.4128 40.0185C13.9698 40.4041 13.5478 40.7897 13.1259 41.2182L1.01654 53.5365L0.721191 53.8578C-0.333632 55.2289 -0.228149 57.1998 1.01654 58.4638L13.147 70.7821L13.8221 71.4248L14.4128 71.9603C15.0035 68.5541 16.2271 65.3835 17.9148 62.5128L11.4804 55.9787L17.9148 49.4447C16.2271 46.5954 15.0246 43.4033 14.4128 39.9971V40.0185Z" fill="white"/>
<path d="M20.8047 90.6412H34.5385C37.8084 90.6412 40.9096 89.8699 43.6521 88.4989L42.9981 87.8347C41.2049 86.0138 39.8126 83.9572 38.821 81.7292C35.1925 83.5073 31.1419 84.5142 26.8383 84.5142C26.8383 80.1438 27.8298 76.0092 29.6019 72.3244C27.9142 71.5532 26.3109 70.5249 24.8341 69.2609L24.2223 68.7253L23.5894 68.1041L22.9354 67.4399C21.5853 70.2249 20.8258 73.3741 20.8258 76.6947V90.6412H20.8047Z" fill="white"/>
<path d="M75.698 90.6412H89.4318V75.9236C89.3052 72.9029 88.5669 70.0322 87.3222 67.4614L86.6682 68.1255C84.875 69.9465 82.8497 71.3604 80.6557 72.3673C82.4067 76.0521 83.3982 80.1653 83.3982 84.5356C79.0946 84.5356 75.044 83.5288 71.4155 81.7506C70.5294 83.743 69.3058 85.6068 67.7869 87.2778L67.2595 87.8348L66.6055 88.4989C69.348 89.87 72.4492 90.6412 75.7191 90.6412H75.698Z" fill="white"/>
<path d="M34.517 20.9517H20.7832V35.6693C20.9098 38.69 21.6482 41.5607 22.8928 44.1315L23.5468 43.4673C25.34 41.6464 27.3653 40.2325 29.5593 39.2256C27.8083 35.5408 26.8168 31.4276 26.8168 27.0572C31.1205 27.0572 35.171 28.0641 38.7996 29.8423C39.6856 27.8499 40.9092 25.9861 42.4281 24.3151L42.9556 23.7581L43.6095 23.094C40.867 21.7229 37.7658 20.9517 34.4959 20.9517H34.517Z" fill="white"/>
<path d="M89.4314 20.9517H75.6977C72.4277 20.9517 69.3265 21.7229 66.584 23.094L67.238 23.7581C69.0312 25.5791 70.4235 27.6357 71.4151 29.8637C75.0437 28.0856 79.0942 27.0787 83.3978 27.0787C83.3978 31.449 82.4063 35.5836 80.6342 39.2684C82.3219 40.0396 83.9253 41.068 85.402 42.3319L86.0138 42.8675L86.6467 43.4888L87.3007 44.1529C88.6509 41.3679 89.4103 38.2187 89.4103 34.8981V20.9517H89.4314Z" fill="white"/>
<path d="M70.6987 67.2042C74.6648 67.6113 78.7786 66.2831 81.8165 63.1981L89.0948 55.8072L81.8165 48.4162L81.268 47.8806C78.2934 45.1813 74.4328 44.003 70.7198 44.4101C70.1924 47.2165 68.9266 49.7658 67.1123 51.8225C70.0447 52.1867 72.8927 53.5149 75.129 55.8072C72.8716 58.0994 70.0447 59.4277 67.1123 59.7704C68.9055 61.827 70.1924 64.3764 70.7198 67.2042H70.6987Z" fill="white"/>
<path d="M62.3865 28.7069L55.1082 21.3159L47.83 28.7069C44.7921 31.7918 43.4841 35.9693 43.8849 39.9754C46.6486 40.511 49.159 41.7964 51.1843 43.6388C51.5429 40.661 52.8509 37.7689 55.1082 35.498C57.3656 37.7903 58.6735 40.661 59.0111 43.6388C61.0363 41.8178 63.5679 40.511 66.3316 39.9754C66.7324 35.9479 65.4244 31.7704 62.3865 28.6855V28.7069Z" fill="white"/>
<path d="M47.83 82.9075L55.1082 90.2985L62.3865 82.9075C65.4244 79.8226 66.7324 75.6451 66.3316 71.6389C63.5679 71.1034 61.0574 69.818 59.0322 67.9756C58.6735 70.9534 57.3656 73.8455 55.1082 76.1164C52.8509 73.8241 51.5429 70.9534 51.2054 67.9756C49.1801 69.7966 46.6697 71.1034 43.8849 71.6389C43.4841 75.6665 44.7921 79.844 47.83 82.9289V82.9075Z" fill="white"/>
<path d="M39.5593 44.5601V44.3887C35.5721 43.9817 31.4582 45.3099 28.4204 48.3948L21.1421 55.7858L28.4204 63.1768L28.9689 63.7124C31.9435 66.4117 35.8041 67.5899 39.5171 67.1829C40.0445 64.3765 41.3103 61.8271 43.1246 59.7705C40.1922 59.4063 37.3442 58.0781 35.1079 55.7858C37.3653 53.4935 40.1922 52.1653 43.1246 51.8225C41.3525 49.8088 40.1078 47.3023 39.5593 44.5601Z" fill="white"/>
<path d="M56.7353 62.8519C60.4661 61.9577 62.7767 58.1616 61.8961 54.3731C61.0156 50.5846 57.2774 48.2383 53.5466 49.1324C49.8159 50.0266 47.5053 53.8227 48.3859 57.6112C49.2664 61.3997 53.0046 63.746 56.7353 62.8519Z" fill="white"/>
</svg>
