<svg width="139" height="141" viewBox="0 0 139 141" fill="none" xmlns="http://www.w3.org/2000/svg">
<g clip-path="url(#clip0_54_148)">
<path d="M29.2584 66.4964L28.6342 65.8812L22.9617 60.1208C24.724 67.5963 28.2671 74.7175 33.5725 80.8135V69.7215C32.2875 68.9571 31.0575 68.081 29.8826 67.0743L29.2401 66.4964H29.2584Z" fill="white"/>
<path d="M33.5725 27.7209V16.6475C28.2671 22.7435 24.724 29.8647 22.9617 37.3402L28.6342 31.5985C30.1396 30.0698 31.8102 28.7835 33.5725 27.7395V27.7209Z" fill="white"/>
<path d="M48.7171 85.1198H37.8125C43.8155 90.5074 50.8282 94.0867 58.1714 95.895L52.5171 90.1346C51.0118 88.6059 49.7451 86.9095 48.7171 85.1198Z" fill="white"/>
<path d="M109.555 30.9646L110.179 31.5798L115.852 37.3216C114.09 29.8461 110.547 22.7248 105.241 16.6475V27.7395C106.526 28.4852 107.756 29.38 108.913 30.3867L109.555 30.9646Z" fill="white"/>
<path d="M51.9486 7.92294L52.5177 7.32639L58.1719 1.56598C50.8104 3.35562 43.7977 6.95355 37.7947 12.3411H48.6992C49.5988 10.7752 50.6635 9.28381 51.9302 7.92294H51.9486Z" fill="white"/>
<path d="M105.241 69.7401V80.8135C110.547 74.7175 114.09 67.5963 115.852 60.1208L110.179 65.8812C108.674 67.4098 107.004 68.6961 105.241 69.7401Z" fill="white"/>
<path d="M86.2956 7.32639C87.801 8.85504 89.0677 10.5515 90.0957 12.3411H101C94.9972 6.95355 87.9845 3.35562 80.623 1.56598L86.2956 7.32639Z" fill="white"/>
<path d="M86.8647 89.538L86.2956 90.1346L80.623 95.895C87.9845 94.1053 94.9972 90.5074 101 85.1198H90.0957C89.1962 86.6858 88.1314 88.1771 86.8647 89.538Z" fill="white"/>
<path d="M55.7297 12.7326C58.6303 13.2545 61.3656 14.3358 63.8072 15.8271L69.4063 10.1413L75.0055 15.8271C77.4471 14.3358 80.1824 13.2732 83.0829 12.7326C82.7708 12.3411 82.422 11.9682 82.0732 11.614L71.5175 0.894821C70.3426 -0.298274 68.4701 -0.298274 67.2952 0.894821L56.7394 11.614C56.3906 11.9682 56.0418 12.3411 55.7297 12.7326Z" fill="white"/>
<path d="M83.0829 84.7284C80.1824 84.2064 77.4471 83.1252 75.0055 81.6338L69.4063 87.3197L63.8072 81.6338C61.3656 83.1252 58.6303 84.1878 55.7297 84.7284C56.0418 85.1199 56.3906 85.4927 56.7394 85.8469L67.2952 96.5661C68.4701 97.7592 70.3426 97.7592 71.5175 96.5661L82.0732 85.8469C82.422 85.4927 82.7708 85.1199 83.0829 84.7284Z" fill="white"/>
<path d="M116.513 46.5867L105.957 35.8675L105.37 35.3082L104.856 34.8422C104.342 37.8063 103.277 40.5653 101.808 43.0447L107.407 48.7305L101.808 54.4164C103.277 56.8958 104.323 59.6734 104.856 62.6189C105.241 62.2833 105.608 61.9478 105.976 61.5749L116.531 50.8557L116.788 50.5761C117.706 49.383 117.614 47.6679 116.531 46.568L116.513 46.5867Z" fill="white"/>
<path d="M33.9576 34.8235C33.5721 35.159 33.2049 35.4946 32.8378 35.8674L22.3004 46.5866L22.0433 46.8663C21.1254 48.0593 21.2172 49.7744 22.3004 50.8743L32.8561 61.5935L33.4436 62.1528L33.9576 62.6188C34.4716 59.6547 35.5364 56.8957 37.005 54.3977L31.4058 48.7118L37.005 43.026C35.5364 40.5466 34.49 37.7689 33.9576 34.8048V34.8235Z" fill="white"/>
<path d="M39.5195 78.8748H51.4705C54.316 78.8748 57.0146 78.2036 59.4011 77.0105L58.832 76.4326C57.2716 74.8481 56.06 73.0584 55.1971 71.1196C52.0396 72.6669 48.5149 73.5431 44.7699 73.5431C44.7699 69.7401 45.6327 66.1422 47.1748 62.9357C45.7061 62.2646 44.3109 61.3698 43.0259 60.2699L42.4935 59.8039L41.9428 59.2633L41.3737 58.6853C40.1988 61.1088 39.5379 63.8492 39.5379 66.7387V78.8748H39.5195Z" fill="white"/>
<path d="M87.287 78.8748H99.2379V66.0676C99.1278 63.4391 98.4853 60.9411 97.4022 58.704L96.8331 59.2819C95.2727 60.8665 93.5103 62.0969 91.6011 62.973C93.1248 66.1795 93.9876 69.7588 93.9876 73.5618C90.2426 73.5618 86.7179 72.6856 83.5603 71.1383C82.7893 72.872 81.7246 74.4939 80.4028 75.948L79.9438 76.4327L79.3748 77.0106C81.7613 78.2037 84.4599 78.8748 87.3053 78.8748H87.287Z" fill="white"/>
<path d="M51.4517 18.232H39.5007V31.0391C39.6109 33.6676 40.2534 36.1657 41.3365 38.4027L41.9056 37.8248C43.466 36.2402 45.2284 35.0099 47.1376 34.1337C45.6139 30.9272 44.7511 27.348 44.7511 23.545C48.4961 23.545 52.0208 24.4211 55.1783 25.9684C55.9494 24.2347 57.0141 22.6129 58.3359 21.1588L58.7948 20.6741L59.3639 20.0962C56.9774 18.9031 54.2788 18.232 51.4333 18.232H51.4517Z" fill="white"/>
<path d="M99.238 18.232H87.287C84.4416 18.232 81.743 18.9031 79.3564 20.0962L79.9255 20.6741C81.486 22.2587 82.6976 24.0483 83.5604 25.9871C86.7179 24.4398 90.2426 23.5636 93.9876 23.5636C93.9876 27.3666 93.1248 30.9645 91.5828 34.171C93.0514 34.8421 94.4466 35.7369 95.7316 36.8368L96.264 37.3028L96.8148 37.8435L97.3839 38.4214C98.5588 35.9979 99.2196 33.2575 99.2196 30.368V18.232H99.238Z" fill="white"/>
<path d="M82.9367 58.4803C86.388 58.8345 89.9678 57.6787 92.6113 54.9942L98.9448 48.5627L92.6113 42.1312L92.134 41.6651C89.5456 39.3162 86.1861 38.2909 82.9551 38.6451C82.4962 41.0872 81.3947 43.3056 79.8159 45.0953C82.3677 45.4122 84.846 46.568 86.7919 48.5627C84.8276 50.5574 82.3677 51.7132 79.8159 52.0115C81.3763 53.8011 82.4962 56.0196 82.9551 58.4803H82.9367Z" fill="white"/>
<path d="M75.7036 24.9805L69.3702 18.549L63.0367 24.9805C60.3932 27.6649 59.255 31.3001 59.6038 34.7862C62.0087 35.2523 64.1933 36.3708 65.9556 37.974C66.2677 35.3828 67.4059 32.8661 69.3702 30.89C71.3345 32.8847 72.4727 35.3828 72.7664 37.974C74.5287 36.3894 76.7317 35.2523 79.1366 34.7862C79.4854 31.2815 78.3472 27.6463 75.7036 24.9618V24.9805Z" fill="white"/>
<path d="M63.0367 72.1449L69.3702 78.5764L75.7036 72.1449C78.3472 69.4605 79.4854 65.8252 79.1366 62.3392C76.7317 61.8731 74.5471 60.7546 72.7847 59.1514C72.4727 61.7426 71.3345 64.2593 69.3702 66.2354C67.4059 64.2407 66.2677 61.7426 65.974 59.1514C64.2116 60.7359 62.027 61.8731 59.6038 62.3392C59.255 65.8439 60.3932 69.4791 63.0367 72.1636V72.1449Z" fill="white"/>
<path d="M55.8399 38.7756V38.6265C52.3702 38.2723 48.7905 39.4281 46.1469 42.1126L39.8135 48.5441L46.1469 54.9756L46.6242 55.4417C49.2127 57.7906 52.5722 58.8159 55.8032 58.4617C56.2621 56.0196 57.3636 53.8012 58.9424 52.0115C56.3906 51.6946 53.9123 50.5388 51.9664 48.5441C53.9307 46.5494 56.3906 45.3936 58.9424 45.0953C57.4003 43.3429 56.3172 41.1618 55.8399 38.7756Z" fill="white"/>
<path d="M70.7863 54.693C74.0327 53.9149 76.0434 50.6116 75.2771 47.3149C74.5109 44.0182 71.258 41.9764 68.0115 42.7545C64.7651 43.5326 62.7545 46.8359 63.5207 50.1326C64.2869 53.4293 67.5398 55.4711 70.7863 54.693Z" fill="white"/>
<path d="M127.172 139.793V121.717H133.006C134.289 121.717 135.36 121.964 136.219 122.458C137.084 122.947 137.734 123.612 138.17 124.453C138.611 125.295 138.832 126.242 138.832 127.295C138.832 128.348 138.614 129.299 138.179 130.146C137.743 130.987 137.096 131.655 136.237 132.15C135.378 132.638 134.31 132.882 133.033 132.882H128.443V131.399H132.989C133.936 131.399 134.722 131.223 135.345 130.87C135.969 130.511 136.434 130.022 136.74 129.405C137.052 128.787 137.208 128.084 137.208 127.295C137.208 126.507 137.052 125.803 136.74 125.186C136.434 124.568 135.966 124.082 135.337 123.729C134.713 123.376 133.921 123.2 132.962 123.2H128.823V139.793H127.172Z" fill="white"/>
<path d="M123.181 130.755C123.181 132.638 122.846 134.277 122.175 135.671C121.504 137.06 120.58 138.137 119.403 138.902C118.232 139.661 116.885 140.04 115.361 140.04C113.837 140.04 112.487 139.661 111.31 138.902C110.139 138.137 109.218 137.06 108.547 135.671C107.882 134.277 107.55 132.638 107.55 130.755C107.55 128.872 107.882 127.236 108.547 125.848C109.218 124.453 110.142 123.376 111.319 122.617C112.495 121.852 113.843 121.47 115.361 121.47C116.885 121.47 118.232 121.852 119.403 122.617C120.58 123.376 121.504 124.453 122.175 125.848C122.846 127.236 123.181 128.872 123.181 130.755ZM121.575 130.755C121.575 129.137 121.304 127.751 120.763 126.598C120.221 125.439 119.483 124.553 118.547 123.941C117.612 123.329 116.55 123.023 115.361 123.023C114.178 123.023 113.119 123.329 112.184 123.941C111.248 124.553 110.507 125.436 109.959 126.589C109.418 127.742 109.147 129.131 109.147 130.755C109.147 132.373 109.418 133.759 109.959 134.912C110.501 136.065 111.239 136.951 112.175 137.569C113.11 138.181 114.172 138.487 115.361 138.487C116.55 138.487 117.612 138.181 118.547 137.569C119.489 136.957 120.23 136.074 120.771 134.921C121.313 133.762 121.581 132.373 121.575 130.755Z" fill="white"/>
<path d="M104.37 130.755C104.37 132.638 104.034 134.277 103.364 135.671C102.693 137.06 101.769 138.137 100.592 138.902C99.4212 139.661 98.0737 140.04 96.5497 140.04C95.0257 140.04 93.6753 139.661 92.4985 138.902C91.3275 138.137 90.4067 137.06 89.7359 135.671C89.071 134.277 88.7385 132.638 88.7385 130.755C88.7385 128.872 89.071 127.236 89.7359 125.848C90.4067 124.453 91.3305 123.376 92.5073 122.617C93.6841 121.852 95.0316 121.47 96.5497 121.47C98.0737 121.47 99.4212 121.852 100.592 122.617C101.769 123.376 102.693 124.453 103.364 125.848C104.034 127.236 104.37 128.872 104.37 130.755ZM102.763 130.755C102.763 129.137 102.493 127.751 101.951 126.598C101.41 125.439 100.672 124.553 99.736 123.941C98.8004 123.329 97.7383 123.023 96.5497 123.023C95.367 123.023 94.3079 123.329 93.3723 123.941C92.4367 124.553 91.6953 125.436 91.1481 126.589C90.6067 127.742 90.3361 129.131 90.3361 130.755C90.3361 132.373 90.6067 133.759 91.1481 134.912C91.6894 136.065 92.4279 136.951 93.3635 137.569C94.299 138.181 95.3611 138.487 96.5497 138.487C97.7383 138.487 98.8004 138.181 99.736 137.569C100.677 136.957 101.419 136.074 101.96 134.921C102.502 133.762 102.769 132.373 102.763 130.755Z" fill="white"/>
<path d="M76.2737 139.793V121.717H77.9242V138.31H86.5386V139.793H76.2737Z" fill="white"/>
<path d="M63.4674 126.236C63.3673 125.23 62.9231 124.43 62.1346 123.835C61.3461 123.241 60.3547 122.944 59.1602 122.944C58.3188 122.944 57.5774 123.088 56.936 123.376C56.3005 123.665 55.8003 124.065 55.4355 124.577C55.0766 125.083 54.8971 125.659 54.8971 126.307C54.8971 126.783 55.0001 127.201 55.206 127.56C55.412 127.919 55.6885 128.228 56.0357 128.487C56.3888 128.74 56.7771 128.957 57.2008 129.14C57.6303 129.322 58.0628 129.475 58.4982 129.599L60.4047 130.146C60.9813 130.305 61.558 130.508 62.1346 130.755C62.7113 131.002 63.2379 131.314 63.7145 131.691C64.197 132.061 64.5824 132.517 64.8708 133.059C65.165 133.594 65.3121 134.238 65.3121 134.992C65.3121 135.957 65.062 136.824 64.5618 137.595C64.0617 138.366 63.3438 138.978 62.4082 139.431C61.4727 139.878 60.3517 140.102 59.0454 140.102C57.8157 140.102 56.7477 139.899 55.8415 139.493C54.9354 139.081 54.2234 138.513 53.7056 137.789C53.1878 137.066 52.8965 136.227 52.8318 135.274H54.5264C54.5853 135.986 54.8206 136.589 55.2325 137.083C55.6444 137.578 56.1799 137.954 56.8389 138.213C57.4979 138.466 58.2334 138.593 59.0454 138.593C59.9457 138.593 60.746 138.443 61.4462 138.143C62.1523 137.837 62.7054 137.413 63.1055 136.872C63.5115 136.324 63.7145 135.689 63.7145 134.965C63.7145 134.353 63.5556 133.841 63.2379 133.429C62.9202 133.012 62.4759 132.661 61.9051 132.379C61.3403 132.097 60.6842 131.846 59.9369 131.629L57.7745 130.993C56.3564 130.57 55.2561 129.984 54.4735 129.237C53.6909 128.49 53.2996 127.536 53.2996 126.377C53.2996 125.406 53.5585 124.553 54.0763 123.818C54.6 123.076 55.3061 122.5 56.1946 122.088C57.089 121.67 58.0922 121.461 59.2043 121.461C60.3282 121.461 61.3226 121.667 62.1876 122.079C63.0525 122.491 63.7381 123.059 64.2441 123.782C64.756 124.5 65.0296 125.318 65.0649 126.236H63.4674Z" fill="white"/>
<path d="M47.2045 121.717H48.855V133.685C48.855 134.915 48.5667 136.015 47.9901 136.986C47.4134 137.951 46.6102 138.713 45.5805 139.272C44.5567 139.825 43.3651 140.102 42.0059 140.102C40.6525 140.102 39.461 139.822 38.4313 139.263C37.4015 138.704 36.5984 137.942 36.0217 136.977C35.4451 136.012 35.1567 134.915 35.1567 133.685V121.717H36.8072V133.571C36.8072 134.53 37.022 135.386 37.4516 136.139C37.8811 136.886 38.4842 137.475 39.2609 137.904C40.0435 138.334 40.9585 138.549 42.0059 138.549C43.0533 138.549 43.9682 138.334 44.7508 137.904C45.5334 137.475 46.1366 136.886 46.5602 136.139C46.9898 135.386 47.2045 134.53 47.2045 133.571V121.717Z" fill="white"/>
<path d="M19.6226 139.793V121.717H25.4567C26.7394 121.717 27.8103 121.964 28.6694 122.458C29.5344 122.947 30.1846 123.612 30.62 124.453C31.0613 125.295 31.282 126.242 31.282 127.295C31.282 128.348 31.0643 129.299 30.6289 130.146C30.1934 130.987 29.5462 131.655 28.6871 132.15C27.828 132.638 26.76 132.882 25.4832 132.882H20.8935V131.399H25.439C26.3864 131.399 27.1719 131.223 27.7956 130.87C28.4194 130.511 28.8842 130.022 29.1902 129.405C29.502 128.787 29.658 128.084 29.658 127.295C29.658 126.507 29.502 125.803 29.1902 125.186C28.8842 124.568 28.4164 124.082 27.7868 123.729C27.1631 123.376 26.3717 123.2 25.4126 123.2H21.2731V139.793H19.6226Z" fill="white"/>
<path d="M15.6312 130.755C15.6312 132.638 15.2958 134.277 14.625 135.671C13.9542 137.06 13.0304 138.137 11.8536 138.902C10.6827 139.661 9.3352 140.04 7.8112 140.04C6.28721 140.04 4.9368 139.661 3.75997 138.902C2.58902 138.137 1.66816 137.06 0.997363 135.671C0.332454 134.277 0 132.638 0 130.755C0 128.872 0.332454 127.236 0.997363 125.848C1.66816 124.453 2.59197 123.376 3.76879 122.617C4.94562 121.852 6.29309 121.47 7.8112 121.47C9.3352 121.47 10.6827 121.852 11.8536 122.617C13.0304 123.376 13.9542 124.453 14.625 125.848C15.2958 127.236 15.6312 128.872 15.6312 130.755ZM14.0249 130.755C14.0249 129.137 13.7542 127.751 13.2128 126.598C12.6715 125.439 11.933 124.553 10.9975 123.941C10.0619 123.329 8.9998 123.023 7.8112 123.023C6.62849 123.023 5.56934 123.329 4.63376 123.941C3.69819 124.553 2.95678 125.436 2.40956 126.589C1.86822 127.742 1.59755 129.131 1.59755 130.755C1.59755 132.373 1.86822 133.759 2.40956 134.912C2.9509 136.065 3.68936 136.951 4.62494 137.569C5.56052 138.181 6.6226 138.487 7.8112 138.487C8.9998 138.487 10.0619 138.181 10.9975 137.569C11.9389 136.957 12.6803 136.074 13.2217 134.921C13.763 133.762 14.0307 132.373 14.0249 130.755Z" fill="white"/>
</g>
<defs>
<clipPath id="clip0_54_148">
<rect width="138.832" height="140.102" fill="white"/>
</clipPath>
</defs>
</svg>
