<svg width="128" height="25" viewBox="0 0 128 25" fill="none" xmlns="http://www.w3.org/2000/svg">
<path d="M1.93687 16.4218L1.78273 16.2699L0.381836 14.8473C0.817064 16.6934 1.69205 18.4521 3.00227 19.9575V17.2183C2.68492 17.0295 2.38117 16.8131 2.09101 16.5645L1.93234 16.4218H1.93687Z" fill="white"/>
<path d="M3.00227 6.84588V4.11121C1.69205 5.61666 0.817064 7.37532 0.381836 9.22146L1.78273 7.80348C2.15448 7.42596 2.56704 7.1083 3.00227 6.85048V6.84588Z" fill="white"/>
<path d="M6.74229 21.0211H4.04932C5.53181 22.3516 7.26366 23.2356 9.07711 23.6821L7.68075 22.2595C7.30899 21.882 6.99617 21.4631 6.74229 21.0211Z" fill="white"/>
<path d="M21.7668 7.64695L21.921 7.79887L23.3219 9.21685C22.8866 7.37072 22.0116 5.61205 20.7014 4.11121V6.85048C21.0188 7.03464 21.3225 7.25562 21.6081 7.50423L21.7668 7.64695Z" fill="white"/>
<path d="M7.54035 1.95662L7.68089 1.8093L9.07725 0.386719C7.25926 0.828686 5.52742 1.71723 4.04492 3.04773H6.7379C6.96004 2.66101 7.223 2.2927 7.53582 1.95662H7.54035Z" fill="white"/>
<path d="M20.7014 17.2229V19.9575C22.0116 18.4521 22.8866 16.6934 23.3219 14.8473L21.921 16.2699C21.5492 16.6474 21.1366 16.9651 20.7014 17.2229Z" fill="white"/>
<path d="M16.0227 1.8093C16.3945 2.18682 16.7073 2.60576 16.9612 3.04773H19.6542C18.1717 1.71723 16.4398 0.828686 14.6218 0.386719L16.0227 1.8093Z" fill="white"/>
<path d="M16.1633 22.1122L16.0227 22.2595L14.6218 23.6821C16.4398 23.2402 18.1717 22.3516 19.6542 21.0211H16.9612C16.739 21.4078 16.4761 21.7761 16.1633 22.1122Z" fill="white"/>
<path d="M8.47412 3.14442C9.19043 3.27332 9.86594 3.54034 10.4689 3.90865L11.8517 2.50448L13.2344 3.90865C13.8374 3.54034 14.5129 3.27793 15.2292 3.14442C15.1522 3.04773 15.066 2.95566 14.9799 2.86819L12.373 0.220984C12.0829 -0.0736613 11.6205 -0.0736613 11.3303 0.220984L8.72347 2.86819C8.63733 2.95566 8.55119 3.04773 8.47412 3.14442Z" fill="white"/>
<path d="M15.2292 20.9244C14.5129 20.7955 13.8374 20.5285 13.2344 20.1602L11.8517 21.5643L10.4689 20.1602C9.86594 20.5285 9.19043 20.7909 8.47412 20.9244C8.55119 21.0211 8.63733 21.1131 8.72347 21.2006L11.3303 23.8478C11.6205 24.1425 12.0829 24.1425 12.373 23.8478L14.9799 21.2006C15.066 21.1131 15.1522 21.0211 15.2292 20.9244Z" fill="white"/>
<path d="M23.4852 11.5049L20.8784 8.8577L20.7333 8.71959L20.6063 8.60449C20.4794 9.3365 20.2165 10.0179 19.8538 10.6302L21.2365 12.0343L19.8538 13.4385C20.2165 14.0508 20.4749 14.7368 20.6063 15.4642C20.7015 15.3813 20.7922 15.2985 20.8829 15.2064L23.4897 12.5592L23.5532 12.4901C23.7799 12.1955 23.7572 11.7719 23.4897 11.5003L23.4852 11.5049Z" fill="white"/>
<path d="M3.09731 8.59994C3.0021 8.68281 2.91143 8.76568 2.82076 8.85775L0.218455 11.505L0.154984 11.574C-0.0716975 11.8687 -0.0490293 12.2922 0.218455 12.5638L2.82529 15.211L2.97037 15.3492L3.09731 15.4642C3.22425 14.7322 3.4872 14.0509 3.84989 13.434L2.46713 12.0298L3.84989 10.6256C3.4872 10.0133 3.22878 9.32735 3.09731 8.59534V8.59994Z" fill="white"/>
<path d="M4.47095 19.4787H7.42234C8.12505 19.4787 8.79149 19.313 9.38087 19.0184L9.24032 18.8756C8.85496 18.4843 8.55575 18.0424 8.34267 17.5636C7.56288 17.9457 6.69243 18.162 5.76757 18.162C5.76757 17.2229 5.98065 16.3343 6.36147 15.5425C5.99878 15.3767 5.65422 15.1558 5.33687 14.8841L5.20539 14.769L5.06939 14.6355L4.92884 14.4928C4.63869 15.0913 4.47548 15.7681 4.47548 16.4817V19.4787H4.47095Z" fill="white"/>
<path d="M16.2675 19.4788H19.2189V16.3159C19.1917 15.6668 19.033 15.0499 18.7655 14.4974L18.625 14.6402C18.2396 15.0315 17.8044 15.3353 17.3329 15.5517C17.7092 16.3436 17.9222 17.2275 17.9222 18.1667C16.9974 18.1667 16.1269 17.9503 15.3471 17.5682C15.1567 17.9963 14.8938 18.3969 14.5674 18.756L14.454 18.8757L14.3135 19.0184C14.9028 19.313 15.5693 19.4788 16.272 19.4788H16.2675Z" fill="white"/>
<path d="M7.4177 4.50256H4.46631V7.66539C4.49351 8.31453 4.65219 8.93145 4.91967 9.48391L5.06021 9.34119C5.44557 8.94986 5.8808 8.64601 6.3523 8.42963C5.97601 7.63777 5.76293 6.75384 5.76293 5.81465C6.68779 5.81465 7.55824 6.03103 8.33803 6.41315C8.52844 5.985 8.79139 5.58446 9.11781 5.22536L9.23115 5.10567L9.37169 4.96295C8.78232 4.6683 8.11588 4.50256 7.41317 4.50256H7.4177Z" fill="white"/>
<path d="M19.219 4.50256H16.2676C15.5649 4.50256 14.8985 4.6683 14.3091 4.96295L14.4496 5.10567C14.835 5.49699 15.1342 5.93896 15.3473 6.41776C16.1271 6.03564 16.9975 5.81926 17.9224 5.81926C17.9224 6.75844 17.7093 7.64698 17.3285 8.43884C17.6912 8.60457 18.0357 8.82556 18.3531 9.09718L18.4846 9.21228L18.6206 9.34579L18.7611 9.48851C19.0513 8.89001 19.2145 8.21325 19.2145 7.49966V4.50256H19.219Z" fill="white"/>
<path d="M15.1931 14.4422C16.0454 14.5297 16.9295 14.2442 17.5823 13.5813L19.1464 11.993L17.5823 10.4046L17.4644 10.2895C16.8252 9.70947 15.9955 9.45626 15.1976 9.54373C15.0843 10.1468 14.8123 10.6947 14.4224 11.1367C15.0525 11.2149 15.6646 11.5004 16.1451 11.993C15.66 12.4856 15.0525 12.771 14.4224 12.8447C14.8077 13.2866 15.0843 13.8345 15.1976 14.4422H15.1931Z" fill="white"/>
<path d="M13.4069 6.16913L11.8428 4.58081L10.2787 6.16913C9.62586 6.83208 9.34478 7.72983 9.43092 8.59075C10.0248 8.70584 10.5643 8.98207 10.9996 9.378C11.0766 8.73807 11.3577 8.11655 11.8428 7.62854C12.3279 8.12115 12.609 8.73807 12.6815 9.378C13.1168 8.98667 13.6608 8.70584 14.2547 8.59075C14.3408 7.72523 14.0598 6.82748 13.4069 6.16453V6.16913Z" fill="white"/>
<path d="M10.2787 17.8168L11.8428 19.4051L13.4069 17.8168C14.0598 17.1538 14.3408 16.2561 14.2547 15.3952C13.6608 15.2801 13.1213 15.0038 12.6861 14.6079C12.609 15.2478 12.3279 15.8694 11.8428 16.3574C11.3577 15.8648 11.0766 15.2478 11.0041 14.6079C10.5689 14.9992 10.0294 15.2801 9.43092 15.3952C9.34478 16.2607 9.62586 17.1584 10.2787 17.8214V17.8168Z" fill="white"/>
<path d="M8.50131 9.57602V9.53919C7.64446 9.45171 6.7604 9.73715 6.10756 10.4001L4.54346 11.9884L6.10756 13.5767L6.22543 13.6918C6.86467 14.2719 7.69433 14.5251 8.49225 14.4377C8.60559 13.8346 8.87761 13.2867 9.2675 12.8447C8.63732 12.7665 8.02528 12.481 7.54472 11.9884C8.02982 11.4958 8.63732 11.2104 9.2675 11.1367C8.88667 10.704 8.61919 10.1653 8.50131 9.57602Z" fill="white"/>
<path d="M12.1924 13.5069C12.9941 13.3147 13.4906 12.4989 13.3014 11.6848C13.1122 10.8706 12.3088 10.3664 11.5071 10.5586C10.7054 10.7507 10.2088 11.5665 10.398 12.3807C10.5873 13.1948 11.3906 13.699 12.1924 13.5069Z" fill="white"/>
<path d="M119.814 18.136V5.89709H123.764C124.632 5.89709 125.357 6.06442 125.939 6.39908C126.525 6.72976 126.965 7.17995 127.26 7.74967C127.559 8.31938 127.708 8.96081 127.708 9.67395C127.708 10.3871 127.561 11.0305 127.266 11.6042C126.971 12.1739 126.533 12.6261 125.951 12.9608C125.369 13.2914 124.646 13.4568 123.782 13.4568H120.674V12.4528H123.752C124.393 12.4528 124.925 12.3333 125.348 12.0942C125.77 11.8512 126.085 11.5205 126.292 11.1022C126.503 10.6839 126.608 10.2078 126.608 9.67395C126.608 9.14009 126.503 8.664 126.292 8.24568C126.085 7.82736 125.768 7.49867 125.342 7.25963C124.919 7.02059 124.383 6.90107 123.734 6.90107H120.931V18.136H119.814Z" fill="white"/>
<path d="M117.111 12.0165C117.111 13.2914 116.884 14.401 116.43 15.3452C115.976 16.2854 115.35 17.0145 114.553 17.5324C113.761 18.0464 112.848 18.3033 111.816 18.3033C110.785 18.3033 109.87 18.0464 109.073 17.5324C108.281 17.0145 107.657 16.2854 107.203 15.3452C106.753 14.401 106.528 13.2914 106.528 12.0165C106.528 10.7416 106.753 9.63408 107.203 8.69385C107.657 7.74964 108.283 7.02056 109.079 6.50662C109.876 5.9887 110.789 5.72974 111.816 5.72974C112.848 5.72974 113.761 5.9887 114.553 6.50662C115.35 7.02056 115.976 7.74964 116.43 8.69385C116.884 9.63408 117.111 10.7416 117.111 12.0165ZM116.024 12.0165C116.024 10.9209 115.84 9.98269 115.474 9.20182C115.107 8.41696 114.607 7.81737 113.974 7.40303C113.34 6.98869 112.621 6.78152 111.816 6.78152C111.016 6.78152 110.298 6.98869 109.665 7.40303C109.032 7.81737 108.53 8.41497 108.159 9.19584C107.793 9.97671 107.609 10.9169 107.609 12.0165C107.609 13.1121 107.793 14.0504 108.159 14.8312C108.526 15.6121 109.026 16.2117 109.659 16.63C110.292 17.0444 111.012 17.2515 111.816 17.2515C112.621 17.2515 113.34 17.0444 113.974 16.63C114.611 16.2157 115.113 15.6181 115.48 14.8372C115.846 14.0524 116.027 13.1121 116.024 12.0165Z" fill="white"/>
<path d="M104.375 12.0165C104.375 13.2914 104.147 14.401 103.693 15.3452C103.239 16.2854 102.614 17.0145 101.817 17.5324C101.024 18.0464 100.112 18.3033 99.0798 18.3033C98.0479 18.3033 97.1336 18.0464 96.3368 17.5324C95.544 17.0145 94.9205 16.2854 94.4663 15.3452C94.0161 14.401 93.791 13.2914 93.791 12.0165C93.791 10.7416 94.0161 9.63408 94.4663 8.69385C94.9205 7.74964 95.546 7.02056 96.3428 6.50662C97.1396 5.9887 98.0519 5.72974 99.0798 5.72974C100.112 5.72974 101.024 5.9887 101.817 6.50662C102.614 7.02056 103.239 7.74964 103.693 8.69385C104.147 9.63408 104.375 10.7416 104.375 12.0165ZM103.287 12.0165C103.287 10.9209 103.104 9.98269 102.737 9.20182C102.371 8.41696 101.871 7.81737 101.237 7.40303C100.604 6.98869 99.8846 6.78152 99.0798 6.78152C98.279 6.78152 97.5619 6.98869 96.9284 7.40303C96.295 7.81737 95.793 8.41497 95.4225 9.19584C95.0559 9.97671 94.8727 10.9169 94.8727 12.0165C94.8727 13.1121 95.0559 14.0504 95.4225 14.8312C95.789 15.6121 96.289 16.2117 96.9225 16.63C97.5559 17.0444 98.275 17.2515 99.0798 17.2515C99.8846 17.2515 100.604 17.0444 101.237 16.63C101.875 16.2157 102.377 15.6181 102.743 14.8372C103.11 14.0524 103.291 13.1121 103.287 12.0165Z" fill="white"/>
<path d="M85.3513 18.136V5.89709H86.4688V17.1321H92.3015V18.136H85.3513Z" fill="white"/>
<path d="M76.6804 8.95679C76.6126 8.27552 76.3119 7.7337 75.778 7.33131C75.2441 6.92892 74.5728 6.72773 73.7641 6.72773C73.1944 6.72773 72.6924 6.82534 72.2581 7.02056C71.8278 7.21577 71.4892 7.48669 71.2422 7.8333C70.9992 8.17592 70.8776 8.56636 70.8776 9.0046C70.8776 9.32731 70.9474 9.61017 71.0868 9.8532C71.2262 10.0962 71.4135 10.3054 71.6486 10.4807C71.8876 10.652 72.1505 10.7994 72.4374 10.9229C72.7282 11.0464 73.0211 11.15 73.3159 11.2337L74.6067 11.6042C74.9971 11.7117 75.3876 11.8492 75.778 12.0165C76.1684 12.1839 76.525 12.395 76.8477 12.65C77.1744 12.901 77.4354 13.2097 77.6306 13.5763C77.8298 13.9388 77.9294 14.3751 77.9294 14.885C77.9294 15.5384 77.76 16.1261 77.4214 16.648C77.0828 17.1699 76.5967 17.5842 75.9633 17.891C75.3298 18.1938 74.5708 18.3452 73.6864 18.3452C72.8537 18.3452 72.1306 18.2077 71.5171 17.9328C70.9035 17.6539 70.4215 17.2695 70.0709 16.7794C69.7203 16.2894 69.5231 15.7217 69.4792 15.0763H70.6267C70.6665 15.5583 70.8259 15.9667 71.1047 16.3013C71.3836 16.636 71.7462 16.891 72.1924 17.0663C72.6386 17.2376 73.1366 17.3232 73.6864 17.3232C74.2959 17.3232 74.8378 17.2217 75.3119 17.0185C75.7899 16.8113 76.1644 16.5245 76.4354 16.1579C76.7103 15.7874 76.8477 15.3571 76.8477 14.8671C76.8477 14.4528 76.7401 14.1061 76.525 13.8273C76.3099 13.5444 76.0091 13.3074 75.6226 13.1161C75.2402 12.9249 74.7959 12.7556 74.29 12.6082L72.8258 12.1779C71.8657 11.891 71.1207 11.4946 70.5908 10.9886C70.0609 10.4827 69.796 9.83726 69.796 9.05241C69.796 8.39505 69.9713 7.81736 70.3219 7.31936C70.6765 6.81737 71.1545 6.42694 71.7561 6.14805C72.3617 5.86519 73.041 5.72375 73.7939 5.72375C74.5549 5.72375 75.2282 5.8632 75.8139 6.14208C76.3995 6.42096 76.8636 6.80542 77.2063 7.29545C77.5529 7.7815 77.7381 8.33528 77.762 8.95679H76.6804Z" fill="white"/>
<path d="M65.6693 5.89709H66.7868V14.0006C66.7868 14.8333 66.5916 15.5783 66.2011 16.2356C65.8107 16.889 65.2669 17.405 64.5697 17.7834C63.8764 18.1579 63.0697 18.3452 62.1494 18.3452C61.233 18.3452 60.4263 18.1559 59.7291 17.7775C59.0319 17.399 58.488 16.8831 58.0976 16.2297C57.7072 15.5763 57.512 14.8333 57.512 14.0006V5.89709H58.6295V13.9229C58.6295 14.5723 58.7749 15.152 59.0657 15.6619C59.3566 16.1679 59.7649 16.5663 60.2908 16.8572C60.8207 17.148 61.4402 17.2934 62.1494 17.2934C62.8585 17.2934 63.478 17.148 64.0079 16.8572C64.5378 16.5663 64.9462 16.1679 65.233 15.6619C65.5238 15.152 65.6693 14.5723 65.6693 13.9229V5.89709Z" fill="white"/>
<path d="M46.9939 18.136V5.89709H50.9441C51.8126 5.89709 52.5377 6.06442 53.1193 6.39908C53.705 6.72976 54.1452 7.17995 54.44 7.74967C54.7388 8.31938 54.8882 8.96081 54.8882 9.67395C54.8882 10.3871 54.7408 11.0305 54.446 11.6042C54.1512 12.1739 53.713 12.6261 53.1313 12.9608C52.5496 13.2914 51.8265 13.4568 50.962 13.4568H47.8544V12.4528H50.9321C51.5735 12.4528 52.1054 12.3333 52.5277 12.0942C52.95 11.8512 53.2648 11.5205 53.4719 11.1022C53.6831 10.6839 53.7887 10.2078 53.7887 9.67395C53.7887 9.14009 53.6831 8.664 53.4719 8.24568C53.2648 7.82736 52.948 7.49867 52.5217 7.25963C52.0994 7.02059 51.5636 6.90107 50.9142 6.90107H48.1114V18.136H46.9939Z" fill="white"/>
<path d="M44.2916 12.0165C44.2916 13.2914 44.0645 14.401 43.6103 15.3452C43.1561 16.2854 42.5306 17.0145 41.7338 17.5324C40.941 18.0464 40.0287 18.3033 38.9968 18.3033C37.9649 18.3033 37.0506 18.0464 36.2538 17.5324C35.461 17.0145 34.8375 16.2854 34.3833 15.3452C33.9331 14.401 33.708 13.2914 33.708 12.0165C33.708 10.7416 33.9331 9.63408 34.3833 8.69385C34.8375 7.74964 35.463 7.02056 36.2598 6.50662C37.0566 5.9887 37.9689 5.72974 38.9968 5.72974C40.0287 5.72974 40.941 5.9887 41.7338 6.50662C42.5306 7.02056 43.1561 7.74964 43.6103 8.69385C44.0645 9.63408 44.2916 10.7416 44.2916 12.0165ZM43.2039 12.0165C43.2039 10.9209 43.0207 9.98269 42.6541 9.20182C42.2876 8.41696 41.7876 7.81737 41.1542 7.40303C40.5207 6.98869 39.8016 6.78152 38.9968 6.78152C38.196 6.78152 37.4789 6.98869 36.8454 7.40303C36.212 7.81737 35.71 8.41497 35.3395 9.19584C34.9729 9.97671 34.7897 10.9169 34.7897 12.0165C34.7897 13.1121 34.9729 14.0504 35.3395 14.8312C35.706 15.6121 36.206 16.2117 36.8395 16.63C37.4729 17.0444 38.192 17.2515 38.9968 17.2515C39.8016 17.2515 40.5207 17.0444 41.1542 16.63C41.7916 16.2157 42.2936 15.6181 42.6601 14.8372C43.0266 14.0524 43.2079 13.1121 43.2039 12.0165Z" fill="white"/>
</svg>
