<svg width="1024" height="1024" viewBox="0 0 1024 1024" fill="none" xmlns="http://www.w3.org/2000/svg">
<g clip-path="url(#clip0_1517_2326)">
<rect width="1024" height="1024" rx="260" fill="black"/>
<rect width="1024" height="1024" fill="url(#paint0_linear_1517_2326)"/>
<g filter="url(#filter0_f_1517_2326)">
<rect x="110" y="50" width="804" height="804" rx="402" fill="url(#paint1_linear_1517_2326)" fill-opacity="0.1"/>
</g>
<g filter="url(#filter1_f_1517_2326)">
<rect x="914" y="994" width="804" height="804" rx="402" transform="rotate(-180 914 994)" fill="url(#paint2_linear_1517_2326)" fill-opacity="0.1"/>
</g>
<g filter="url(#filter2_f_1517_2326)">
<rect x="110" y="110" width="804" height="804" rx="402" fill="black"/>
</g>
<g filter="url(#filter3_f_1517_2326)">
<path d="M662.9 773.355L742.468 773.365C698.692 812.04 647.522 837.834 593.884 850.745L635.197 809.422L639.376 805.098C648.537 795.288 656.388 784.627 662.9 773.355ZM361.1 773.355C368.581 786.305 377.831 798.45 388.804 809.422L430.094 850.741C376.463 837.827 325.301 812.034 281.531 773.363L361.1 773.355ZM173.254 593.884L214.577 635.196L219.17 639.616L223.796 643.732C232.26 651.004 241.259 657.358 250.658 662.782L250.654 742.489C211.968 698.708 186.168 647.53 173.254 593.884ZM850.746 593.884C837.834 647.522 812.041 698.691 773.365 742.467L773.355 662.9C786.305 655.419 798.45 646.169 809.423 635.196L850.746 593.884ZM250.656 281.509L250.657 361.093C237.702 368.576 225.553 377.827 214.577 388.803L173.259 430.094C186.175 376.454 211.974 325.284 250.656 281.509ZM773.364 281.53C812.035 325.301 837.827 376.463 850.74 430.094L809.423 388.803L804.831 384.383L800.205 380.268C791.745 373 782.751 366.649 773.358 361.227L773.364 281.53ZM593.884 173.254C647.531 186.168 698.708 211.968 742.489 250.654L662.908 250.657C655.424 237.702 646.173 225.553 635.197 214.577L593.884 173.254ZM430.094 173.259L388.804 214.577L384.624 218.901C375.461 228.713 367.608 239.378 361.096 250.652L281.509 250.655C325.284 211.974 376.454 186.175 430.094 173.259Z" fill="#16FD73"/>
</g>
<path d="M552.824 748.375C570.66 759.152 590.569 766.806 611.794 770.607C609.466 773.341 606.998 776.023 604.397 778.623L527.399 855.621C518.894 864.126 505.105 864.126 496.6 855.621L419.603 778.623C417.009 776.03 414.548 773.355 412.218 770.606C433.469 766.801 453.376 759.152 471.197 748.402L512 789.192L552.824 748.375ZM770.609 412.222L774.394 415.555L778.624 419.603L855.621 496.6C863.472 504.451 864.076 516.804 857.433 525.348L855.621 527.4L778.624 604.397C776.003 607.018 773.298 609.505 770.518 611.856C766.675 590.584 759.027 570.683 748.31 552.877L789.192 512L748.398 471.207C759.154 453.379 766.807 433.468 770.609 412.222ZM253.503 412.125C257.338 433.413 264.981 453.318 275.693 471.124L234.808 512L275.603 552.792C264.845 570.621 257.191 590.535 253.39 611.783L249.605 608.444L245.376 604.397L168.379 527.4C160.528 519.549 159.924 507.196 166.567 498.652L168.379 496.6L245.376 419.603C248.004 416.975 250.716 414.482 253.503 412.125ZM527.399 168.379L604.397 245.376C606.991 247.97 609.452 250.645 611.781 253.393C590.532 257.198 570.626 264.847 552.806 275.596L512 234.808L471.163 275.616C453.337 264.847 433.439 257.198 412.228 253.396C414.535 250.659 417.002 247.977 419.603 245.376L496.6 168.379C505.105 159.874 518.894 159.874 527.399 168.379Z" fill="#16FD73"/>
<mask id="path-8-outside-1_1517_2326" maskUnits="userSpaceOnUse" x="234" y="233" width="556" height="556" fill="black">
<rect fill="white" x="234" y="233" width="556" height="556"/>
<path d="M729.475 636.554C728.777 617.612 724.048 599.7 716.119 583.651L711.977 587.78C700.632 599.125 687.702 607.957 673.862 614.24C685.029 637.221 691.293 663.025 691.293 690.293C664.026 690.293 638.221 684.029 615.275 672.88C609.616 685.275 601.918 696.967 592.181 707.449L588.78 710.977L584.651 715.119C602.077 723.728 621.7 728.565 642.452 728.565H729.565V641.452L729.475 636.554Z"/>
<path d="M311.589 587.78L307.447 583.651C298.838 601.078 294 620.7 294 641.452V728.565H381.113C401.865 728.565 421.488 723.728 438.914 715.119L434.785 710.977C423.423 699.615 414.591 686.681 408.325 672.861C385.344 684.029 359.54 690.293 332.272 690.293C332.272 662.965 338.564 637.106 349.777 614.121C339.087 609.249 328.881 602.871 319.468 594.983L315.631 591.643L311.589 587.78Z"/>
<path d="M438.914 306.447C421.488 297.838 401.865 293 381.113 293H294V380.113L294.09 385.012C294.788 403.953 299.518 421.865 307.447 437.914L311.589 433.785C322.933 422.44 335.863 413.608 349.704 407.325C338.536 384.344 332.272 358.54 332.272 331.272C359.54 331.272 385.344 337.536 408.29 348.685C413.949 336.29 421.647 324.599 431.384 314.116L434.785 310.588L438.914 306.447Z"/>
<path d="M729.565 380.113V293H642.452C621.7 293 602.077 297.838 584.651 306.447L588.78 310.588C600.142 321.95 608.974 334.884 615.24 348.704C638.221 337.536 664.026 331.272 691.293 331.272C691.293 358.6 685.001 384.459 673.789 407.444C684.479 412.316 694.685 418.694 704.097 426.582L707.935 429.923L711.977 433.785L716.119 437.914C724.728 420.488 729.565 400.865 729.565 380.113Z"/>
</mask>
<path d="M729.475 636.554C728.777 617.612 724.048 599.7 716.119 583.651L711.977 587.78C700.632 599.125 687.702 607.957 673.862 614.24C685.029 637.221 691.293 663.025 691.293 690.293C664.026 690.293 638.221 684.029 615.275 672.88C609.616 685.275 601.918 696.967 592.181 707.449L588.78 710.977L584.651 715.119C602.077 723.728 621.7 728.565 642.452 728.565H729.565V641.452L729.475 636.554Z" fill="#64D262"/>
<path d="M311.589 587.78L307.447 583.651C298.838 601.078 294 620.7 294 641.452V728.565H381.113C401.865 728.565 421.488 723.728 438.914 715.119L434.785 710.977C423.423 699.615 414.591 686.681 408.325 672.861C385.344 684.029 359.54 690.293 332.272 690.293C332.272 662.965 338.564 637.106 349.777 614.121C339.087 609.249 328.881 602.871 319.468 594.983L315.631 591.643L311.589 587.78Z" fill="#64D262"/>
<path d="M438.914 306.447C421.488 297.838 401.865 293 381.113 293H294V380.113L294.09 385.012C294.788 403.953 299.518 421.865 307.447 437.914L311.589 433.785C322.933 422.44 335.863 413.608 349.704 407.325C338.536 384.344 332.272 358.54 332.272 331.272C359.54 331.272 385.344 337.536 408.29 348.685C413.949 336.29 421.647 324.599 431.384 314.116L434.785 310.588L438.914 306.447Z" fill="#64D262"/>
<path d="M729.565 380.113V293H642.452C621.7 293 602.077 297.838 584.651 306.447L588.78 310.588C600.142 321.95 608.974 334.884 615.24 348.704C638.221 337.536 664.026 331.272 691.293 331.272C691.293 358.6 685.001 384.459 673.789 407.444C684.479 412.316 694.685 418.694 704.097 426.582L707.935 429.923L711.977 433.785L716.119 437.914C724.728 420.488 729.565 400.865 729.565 380.113Z" fill="#64D262"/>
<path d="M716.119 583.651L769.912 557.076L732.914 482.185L673.758 541.159L716.119 583.651ZM729.475 636.554L789.465 635.447L789.455 634.895L789.434 634.344L729.475 636.554ZM729.565 641.452H789.565V640.899L789.555 640.346L729.565 641.452ZM729.565 728.565V788.565H789.565V728.565H729.565ZM584.651 715.119L542.161 672.756L483.182 731.913L558.076 768.912L584.651 715.119ZM588.78 710.977L631.27 753.339L631.628 752.98L631.98 752.616L588.78 710.977ZM592.181 707.449L635.38 749.088L635.764 748.69L636.141 748.284L592.181 707.449ZM615.275 672.88L641.496 618.913L586.218 592.055L560.694 647.961L615.275 672.88ZM691.293 690.293V750.293H751.293V690.293H691.293ZM673.862 614.24L649.06 559.606L592.975 585.066L619.896 640.465L673.862 614.24ZM711.977 587.78L669.616 545.289L669.583 545.321L669.551 545.354L711.977 587.78ZM307.447 583.651L349.807 541.159L290.651 482.186L253.653 557.076L307.447 583.651ZM311.589 587.78L269.228 630.273L269.679 630.722L270.139 631.162L311.589 587.78ZM315.631 591.643L274.181 635.024L275.188 635.986L276.239 636.9L315.631 591.643ZM319.468 594.983L280.076 640.24L280.498 640.608L280.928 640.968L319.468 594.983ZM349.777 614.121L403.703 640.427L430.709 585.066L374.658 559.523L349.777 614.121ZM332.272 690.293H272.272V750.293H332.272V690.293ZM408.325 672.861L462.971 648.086L437.526 591.962L382.101 618.896L408.325 672.861ZM434.785 710.977L477.275 668.614L477.243 668.582L477.211 668.55L434.785 710.977ZM438.914 715.119L465.489 768.912L540.383 731.912L481.404 672.756L438.914 715.119ZM294 728.565H234V788.565H294V728.565ZM438.914 306.447L481.404 348.809L540.383 289.653L465.489 252.653L438.914 306.447ZM434.785 310.588L392.294 268.226L391.937 268.585L391.585 268.949L434.785 310.588ZM431.384 314.116L388.185 272.477L387.801 272.875L387.424 273.281L431.384 314.116ZM408.29 348.685L382.069 402.652L437.346 429.51L462.871 373.604L408.29 348.685ZM332.272 331.272V271.272H272.272V331.272H332.272ZM349.704 407.325L374.505 461.959L430.59 436.499L403.669 381.101L349.704 407.325ZM311.589 433.785L353.949 476.277L353.982 476.244L354.015 476.211L311.589 433.785ZM307.447 437.914L253.653 464.489L290.651 539.38L349.807 480.406L307.447 437.914ZM294.09 385.012L234.1 386.111L234.11 386.666L234.13 387.222L294.09 385.012ZM294 380.113H234V380.663L234.01 381.212L294 380.113ZM294 293V233H234V293H294ZM729.565 293H789.565V233H729.565V293ZM716.119 437.914L673.758 480.405L732.914 539.381L769.912 464.489L716.119 437.914ZM711.977 433.785L754.338 391.293L753.886 390.842L753.424 390.401L711.977 433.785ZM707.935 429.923L749.382 386.539L748.377 385.579L747.329 384.667L707.935 429.923ZM704.097 426.582L743.492 381.327L743.068 380.958L742.638 380.598L704.097 426.582ZM673.789 407.444L619.863 381.138L592.857 436.499L648.908 462.042L673.789 407.444ZM691.293 331.272H751.293V271.272H691.293V331.272ZM615.24 348.704L560.594 373.48L586.04 429.603L641.465 402.669L615.24 348.704ZM588.78 310.588L546.29 352.951L546.322 352.983L546.354 353.015L588.78 310.588ZM584.651 306.447L558.076 252.653L483.182 289.653L542.161 348.809L584.651 306.447ZM662.325 610.227C666.582 618.843 669.136 628.467 669.516 638.763L789.434 634.344C788.418 606.757 781.513 580.558 769.912 557.076L662.325 610.227ZM669.485 637.66L669.576 642.558L789.555 640.346L789.465 635.447L669.485 637.66ZM669.565 641.452V728.565H789.565V641.452H669.565ZM729.565 668.565H642.452V788.565H729.565V668.565ZM642.452 668.565C631.12 668.565 620.572 665.942 611.226 661.325L558.076 768.912C583.582 781.513 612.28 788.565 642.452 788.565V668.565ZM627.141 757.481L631.27 753.339L546.29 668.614L542.161 672.756L627.141 757.481ZM631.98 752.616L635.38 749.088L548.981 665.81L545.581 669.338L631.98 752.616ZM636.141 748.284C650.31 733.031 661.569 715.948 669.855 697.799L560.694 647.961C557.663 654.601 553.526 660.902 548.22 666.614L636.141 748.284ZM589.053 726.847C619.998 741.882 654.751 750.293 691.293 750.293V630.293C673.3 630.293 656.444 626.176 641.496 618.913L589.053 726.847ZM751.293 690.293C751.293 653.744 742.879 618.99 727.827 588.016L619.896 640.465C627.179 655.452 631.293 672.307 631.293 690.293H751.293ZM698.663 668.874C719.001 659.642 737.915 646.695 754.403 630.207L669.551 545.354C663.349 551.555 656.404 556.272 649.06 559.606L698.663 668.874ZM754.338 630.272L758.48 626.143L673.758 541.159L669.616 545.289L754.338 630.272ZM265.086 626.143L269.228 630.273L353.949 545.288L349.807 541.159L265.086 626.143ZM270.139 631.162L274.181 635.024L357.08 548.261L353.038 544.399L270.139 631.162ZM276.239 636.9L280.076 640.24L358.86 549.725L355.023 546.385L276.239 636.9ZM280.928 640.968C294.517 652.357 309.324 661.623 324.896 668.719L374.658 559.523C368.849 556.876 363.244 553.386 358.009 548.998L280.928 640.968ZM295.851 587.815C280.722 618.829 272.272 653.668 272.272 690.293H392.272C392.272 672.261 396.407 655.382 403.703 640.427L295.851 587.815ZM332.272 750.293C368.821 750.293 403.575 741.879 434.55 726.827L382.101 618.896C367.114 626.179 350.258 630.293 332.272 630.293V750.293ZM353.679 697.637C362.902 717.978 375.857 736.902 392.358 753.403L477.211 668.55C470.988 662.328 466.28 655.384 462.971 648.086L353.679 697.637ZM392.294 753.339L396.424 757.481L481.404 672.756L477.275 668.614L392.294 753.339ZM412.338 661.325C402.992 665.942 392.445 668.565 381.113 668.565V788.565C411.286 788.565 439.983 781.513 465.489 768.912L412.338 661.325ZM381.113 668.565H294V788.565H381.113V668.565ZM354 728.565V641.452H234V728.565H354ZM354 641.452C354 630.12 356.623 619.573 361.24 610.227L253.653 557.076C241.052 582.583 234 611.28 234 641.452H354ZM381.113 353C392.445 353 402.992 355.623 412.338 360.24L465.489 252.653C439.983 240.052 411.286 233 381.113 233V353ZM396.424 264.084L392.294 268.226L477.275 352.951L481.404 348.809L396.424 264.084ZM391.585 268.949L388.185 272.477L474.584 355.755L477.984 352.227L391.585 268.949ZM387.424 273.281C373.255 288.535 361.996 305.617 353.709 323.766L462.871 373.604C465.902 366.964 470.039 360.662 475.345 354.951L387.424 273.281ZM434.511 294.718C403.567 279.683 368.815 271.272 332.272 271.272V391.272C350.265 391.272 367.121 395.389 382.069 402.652L434.511 294.718ZM272.272 331.272C272.272 367.821 280.686 402.575 295.738 433.55L403.669 381.101C396.386 366.113 392.272 349.258 392.272 331.272H272.272ZM324.902 352.691C304.565 361.923 285.65 374.87 269.162 391.358L354.015 476.211C360.216 470.01 367.162 465.293 374.505 461.959L324.902 352.691ZM269.228 391.293L265.086 395.422L349.807 480.406L353.949 476.277L269.228 391.293ZM361.24 411.338C356.983 402.721 354.428 393.097 354.049 382.802L234.13 387.222C235.147 414.81 242.053 441.009 253.653 464.489L361.24 411.338ZM354.08 383.913L353.99 379.014L234.01 381.212L234.1 386.111L354.08 383.913ZM354 380.113V293H234V380.113H354ZM294 353H381.113V233H294V353ZM669.565 293V380.113H789.565V293H669.565ZM669.565 380.113C669.565 391.445 666.942 401.993 662.325 411.338L769.912 464.489C782.514 438.983 789.565 410.286 789.565 380.113H669.565ZM758.48 395.422L754.338 391.293L669.616 476.276L673.758 480.405L758.48 395.422ZM753.424 390.401L749.382 386.539L666.487 473.306L670.53 477.168L753.424 390.401ZM747.329 384.667L743.492 381.327L664.703 471.838L668.54 475.179L747.329 384.667ZM742.638 380.598C729.048 369.208 714.241 359.942 698.67 352.846L648.908 462.042C654.717 464.689 660.321 468.18 665.557 472.567L742.638 380.598ZM727.714 433.75C742.844 402.736 751.293 367.897 751.293 331.272H631.293C631.293 349.304 627.158 366.183 619.863 381.138L727.714 433.75ZM691.293 271.272C654.744 271.272 619.99 279.686 589.016 294.738L641.465 402.669C656.452 395.386 673.307 391.272 691.293 391.272V271.272ZM669.886 323.928C660.663 303.586 647.707 284.662 631.207 268.162L546.354 353.015C552.577 359.238 557.286 366.182 560.594 373.48L669.886 323.928ZM631.27 268.226L627.141 264.084L542.161 348.809L546.29 352.951L631.27 268.226ZM611.226 360.24C620.572 355.623 631.12 353 642.452 353V233C612.28 233 583.583 240.052 558.076 252.653L611.226 360.24ZM642.452 353H729.565V233H642.452V353Z" fill="black" fill-opacity="0.2" mask="url(#path-8-outside-1_1517_2326)"/>
<g filter="url(#filter4_i_1517_2326)">
<path d="M729.475 636.554C728.777 617.612 724.048 599.7 716.119 583.651L711.977 587.78C700.632 599.125 687.702 607.957 673.862 614.24C685.029 637.221 691.293 663.025 691.293 690.293C664.026 690.293 638.221 684.029 615.275 672.88C609.616 685.275 601.918 696.967 592.181 707.449L588.78 710.977L584.651 715.119C602.077 723.728 621.7 728.565 642.452 728.565H729.565V641.452L729.475 636.554Z" fill="#64D262"/>
<path d="M311.589 587.78L307.447 583.651C298.838 601.078 294 620.7 294 641.452V728.565H381.113C401.865 728.565 421.488 723.728 438.914 715.119L434.785 710.977C423.423 699.615 414.591 686.681 408.325 672.861C385.344 684.029 359.54 690.293 332.272 690.293C332.272 662.965 338.564 637.106 349.777 614.121C339.087 609.249 328.881 602.871 319.468 594.983L315.631 591.643L311.589 587.78Z" fill="#64D262"/>
<path d="M438.914 306.447C421.488 297.838 401.865 293 381.113 293H294V380.113L294.09 385.012C294.788 403.953 299.518 421.865 307.447 437.914L311.589 433.785C322.933 422.44 335.863 413.608 349.704 407.325C338.536 384.344 332.272 358.54 332.272 331.272C359.54 331.272 385.344 337.536 408.29 348.685C413.949 336.29 421.647 324.599 431.384 314.116L434.785 310.588L438.914 306.447Z" fill="#64D262"/>
<path d="M729.565 380.113V293H642.452C621.7 293 602.077 297.838 584.651 306.447L588.78 310.588C600.142 321.95 608.974 334.884 615.24 348.704C638.221 337.536 664.026 331.272 691.293 331.272C691.293 358.6 685.001 384.459 673.789 407.444C684.479 412.316 694.685 418.694 704.097 426.582L707.935 429.923L711.977 433.785L716.119 437.914C724.728 420.488 729.565 400.865 729.565 380.113Z" fill="#64D262"/>
</g>
<mask id="path-11-outside-2_1517_2326" maskUnits="userSpaceOnUse" x="211.188" y="210.189" width="602" height="602" fill="black">
<rect fill="white" x="211.188" y="210.189" width="602" height="602"/>
<path d="M583.035 609.68C565.451 606.315 549.508 598.243 536.645 586.785C534.362 605.403 526.074 623.425 511.783 637.716C497.496 623.43 489.21 605.416 486.962 586.818C474.055 598.244 458.111 606.305 440.525 609.653C437.947 634.82 446.3 660.895 465.584 680.178L511.783 726.377L557.981 680.178C577.264 660.895 585.617 634.82 583.035 609.68Z"/>
<path d="M681.178 464.585L677.696 461.286C658.822 444.354 634.336 437.101 610.68 439.527C607.317 457.107 599.248 473.048 587.783 485.92C606.402 488.204 624.424 496.492 638.716 510.783C624.424 525.075 606.402 533.363 587.816 535.597C599.238 548.497 607.306 564.432 610.652 582.041C635.819 584.618 661.894 576.265 681.178 556.982L727.376 510.783L681.178 464.585Z"/>
<path d="M413.083 440.548L412.912 439.526C387.745 436.948 361.671 445.301 342.388 464.585L296.188 510.783L342.388 556.982L345.869 560.28C364.743 577.212 389.229 584.466 412.882 582.035C416.246 564.432 424.319 548.499 435.782 535.647C417.164 533.363 399.141 525.075 384.849 510.783C399.136 496.497 417.149 488.21 435.746 485.974C424.542 473.322 416.56 457.752 413.083 440.548Z"/>
<path d="M557.981 341.388L511.783 295.189L465.584 341.388C446.3 360.672 437.947 386.746 440.53 411.886C458.108 415.25 474.047 423.319 486.919 434.782C489.203 416.164 497.491 398.142 511.783 383.85C526.074 398.142 534.362 416.164 536.591 434.759C549.501 423.327 565.448 415.263 583.04 411.913C585.617 386.746 577.264 360.672 557.981 341.388Z"/>
</mask>
<path d="M583.035 609.68C565.451 606.315 549.508 598.243 536.645 586.785C534.362 605.403 526.074 623.425 511.783 637.716C497.496 623.43 489.21 605.416 486.962 586.818C474.055 598.244 458.111 606.305 440.525 609.653C437.947 634.82 446.3 660.895 465.584 680.178L511.783 726.377L557.981 680.178C577.264 660.895 585.617 634.82 583.035 609.68Z" fill="#64D262"/>
<path d="M681.178 464.585L677.696 461.286C658.822 444.354 634.336 437.101 610.68 439.527C607.317 457.107 599.248 473.048 587.783 485.92C606.402 488.204 624.424 496.492 638.716 510.783C624.424 525.075 606.402 533.363 587.816 535.597C599.238 548.497 607.306 564.432 610.652 582.041C635.819 584.618 661.894 576.265 681.178 556.982L727.376 510.783L681.178 464.585Z" fill="#64D262"/>
<path d="M413.083 440.548L412.912 439.526C387.745 436.948 361.671 445.301 342.388 464.585L296.188 510.783L342.388 556.982L345.869 560.28C364.743 577.212 389.229 584.466 412.882 582.035C416.246 564.432 424.319 548.499 435.782 535.647C417.164 533.363 399.141 525.075 384.849 510.783C399.136 496.497 417.149 488.21 435.746 485.974C424.542 473.322 416.56 457.752 413.083 440.548Z" fill="#64D262"/>
<path d="M557.981 341.388L511.783 295.189L465.584 341.388C446.3 360.672 437.947 386.746 440.53 411.886C458.108 415.25 474.047 423.319 486.919 434.782C489.203 416.164 497.491 398.142 511.783 383.85C526.074 398.142 534.362 416.164 536.591 434.759C549.501 423.327 565.448 415.263 583.04 411.913C585.617 386.746 577.264 360.672 557.981 341.388Z" fill="#64D262"/>
<path d="M592.855 558.872L592.321 558.815L586.022 618.484L586.556 618.54L592.855 558.872ZM536.645 586.785L576.556 541.983L491.037 465.8L477.092 579.479L536.645 586.785ZM583.035 609.68L642.72 603.548L638.158 559.14L594.312 550.75L583.035 609.68ZM557.981 680.178L515.555 637.752L515.555 637.752L557.981 680.178ZM511.783 726.377L469.356 768.804L511.783 811.23L554.209 768.803L511.783 726.377ZM465.584 680.178L423.157 722.605L423.157 722.605L465.584 680.178ZM440.525 609.653L429.302 550.712L385.391 559.073L380.837 603.54L440.525 609.653ZM486.962 586.818L546.529 579.621L532.813 466.1L447.193 541.892L486.962 586.818ZM511.783 637.716L469.356 680.143L511.783 722.569L554.209 680.143L511.783 637.716ZM677.696 461.286L718.958 417.727L718.367 417.167L717.762 416.624L677.696 461.286ZM681.178 464.585L723.604 422.158L723.03 421.584L722.44 421.025L681.178 464.585ZM727.376 510.783L769.803 553.21L812.229 510.783L769.803 468.357L727.376 510.783ZM681.178 556.982L723.604 599.408L723.604 599.408L681.178 556.982ZM610.652 582.041L551.707 593.243L560.056 637.173L604.539 641.729L610.652 582.041ZM587.816 535.597L580.654 476.027L467.026 489.689L542.896 575.373L587.816 535.597ZM638.716 510.783L681.142 553.21L723.569 510.783L681.142 468.357L638.716 510.783ZM587.783 485.92L542.977 446.015L466.814 531.532L580.478 545.474L587.783 485.92ZM610.68 439.527L604.558 379.84L560.14 384.397L551.749 428.252L610.68 439.527ZM412.912 439.526L472.099 429.681L464.585 384.504L419.025 379.838L412.912 439.526ZM413.083 440.548L353.896 450.394L354.066 451.418L354.272 452.435L413.083 440.548ZM435.746 485.974L442.909 545.545L556.543 531.882L480.665 446.196L435.746 485.974ZM384.849 510.783L342.423 468.357L299.997 510.783L342.423 553.21L384.849 510.783ZM435.782 535.647L480.56 575.583L556.848 490.047L443.087 476.093L435.782 535.647ZM412.882 582.035L419.015 641.721L463.436 637.157L471.816 593.296L412.882 582.035ZM345.869 560.28L304.606 603.838L305.197 604.399L305.803 604.943L345.869 560.28ZM342.388 556.982L299.961 599.409L300.535 599.982L301.124 600.54L342.388 556.982ZM296.188 510.783L253.762 468.357L211.335 510.783L253.762 553.21L296.188 510.783ZM342.388 464.585L384.814 507.011L384.814 507.011L342.388 464.585ZM511.783 295.189L554.209 252.763L511.783 210.337L469.356 252.763L511.783 295.189ZM557.981 341.388L515.555 383.814L515.555 383.815L557.981 341.388ZM583.04 411.913L594.262 470.854L638.174 462.494L642.728 418.026L583.04 411.913ZM536.591 434.759L477.017 441.899L490.644 555.588L576.368 479.679L536.591 434.759ZM511.783 383.85L554.209 341.424L511.783 298.997L469.356 341.424L511.783 383.85ZM486.919 434.782L447.016 479.59L532.531 555.744L546.473 442.087L486.919 434.782ZM440.53 411.886L380.844 418.018L385.407 462.426L429.253 470.817L440.53 411.886ZM465.584 341.388L423.157 298.962L423.157 298.962L465.584 341.388ZM496.735 631.586C517.523 650.104 543.31 663.167 571.757 668.611L594.312 550.75C587.593 549.464 581.493 546.382 576.556 541.983L496.735 631.586ZM523.349 615.812C524.164 623.747 521.547 631.76 515.555 637.752L600.407 722.605C632.982 690.03 647.071 645.893 642.72 603.548L523.349 615.812ZM515.555 637.752L469.356 683.951L554.209 768.803L600.408 722.605L515.555 637.752ZM554.209 683.95L508.01 637.752L423.157 722.605L469.356 768.804L554.209 683.95ZM508.01 637.752C502.025 631.767 499.395 623.752 500.212 615.766L380.837 603.54C376.5 645.888 390.575 690.023 423.157 722.605L508.01 637.752ZM451.747 668.594C480.219 663.173 505.96 650.132 526.732 631.745L447.193 541.892C442.149 546.357 436.003 549.436 429.302 550.712L451.747 668.594ZM427.396 594.015C431.203 625.524 445.281 656.068 469.356 680.143L554.209 595.29C549.712 590.792 547.216 585.308 546.529 579.621L427.396 594.015ZM554.209 680.143C578.3 656.051 592.343 625.525 596.199 594.09L477.092 579.479C476.38 585.281 473.848 590.798 469.356 595.29L554.209 680.143ZM636.433 504.845L639.915 508.144L722.44 421.025L718.958 417.727L636.433 504.845ZM638.751 507.011L684.95 553.21L769.803 468.357L723.604 422.158L638.751 507.011ZM684.95 468.357L638.751 514.556L723.604 599.408L769.803 553.21L684.95 468.357ZM638.751 514.555C632.767 520.54 624.751 523.171 616.765 522.353L604.539 641.729C646.887 646.066 691.022 631.991 723.604 599.408L638.751 514.555ZM669.597 570.839C664.177 542.317 651.116 516.578 632.737 495.822L542.896 575.373C547.361 580.416 550.435 586.548 551.707 593.243L669.597 570.839ZM594.979 595.168C626.503 591.378 657.064 577.288 681.142 553.21L596.289 468.357C591.785 472.862 586.301 475.348 580.654 476.027L594.979 595.168ZM681.142 468.357C657.051 444.266 626.524 430.222 595.088 426.366L580.478 545.474C586.279 546.185 591.797 548.717 596.289 553.21L681.142 468.357ZM632.589 525.825C651.109 505.031 664.169 479.248 669.611 450.802L551.749 428.252C550.464 434.966 547.386 441.064 542.977 446.015L632.589 525.825ZM616.802 499.214C624.287 498.446 631.827 500.743 637.63 505.948L717.762 416.624C685.817 387.966 644.386 375.755 604.558 379.84L616.802 499.214ZM353.726 449.371L353.896 450.394L472.269 430.703L472.099 429.681L353.726 449.371ZM354.272 452.435C359.899 480.278 372.81 505.406 390.827 525.752L480.665 446.196C476.274 441.238 473.22 435.226 471.893 428.662L354.272 452.435ZM428.583 426.403C397.048 430.195 366.496 444.284 342.423 468.357L427.276 553.21C431.775 548.711 437.249 546.226 442.909 545.545L428.583 426.403ZM342.423 553.21C366.514 577.301 397.041 591.344 428.477 595.2L443.087 476.093C437.286 475.381 431.768 472.849 427.276 468.357L342.423 553.21ZM391.004 495.71C372.464 516.498 359.391 542.291 353.949 570.775L471.816 593.296C473.101 586.572 476.175 580.5 480.56 575.583L391.004 495.71ZM406.75 522.35C399.276 523.118 391.739 520.825 385.936 515.618L305.803 604.943C337.748 633.599 379.181 645.814 419.015 641.721L406.75 522.35ZM387.133 516.722L383.651 513.424L301.124 600.54L304.606 603.838L387.133 516.722ZM384.814 514.555L338.615 468.357L253.762 553.21L299.961 599.409L384.814 514.555ZM338.615 553.21L384.814 507.011L299.961 422.158L253.762 468.357L338.615 553.21ZM384.814 507.011C390.799 501.026 398.814 498.396 406.8 499.213L419.025 379.838C376.677 375.501 332.543 389.576 299.961 422.158L384.814 507.011ZM469.356 337.616L515.555 383.814L600.408 298.962L554.209 252.763L469.356 337.616ZM515.555 383.815C521.539 389.799 524.17 397.815 523.352 405.801L642.728 418.026C647.065 375.678 632.99 331.544 600.407 298.962L515.555 383.815ZM571.817 352.972C543.336 358.395 517.588 371.443 496.814 389.839L576.368 479.679C581.413 475.211 587.56 472.131 594.262 470.854L571.817 352.972ZM596.165 427.619C592.383 396.072 578.29 365.504 554.209 341.424L469.356 426.277C473.859 430.78 476.341 436.257 477.017 441.899L596.165 427.619ZM469.356 341.424C445.266 365.514 431.222 396.04 427.366 427.477L546.473 442.087C547.184 436.287 549.716 430.769 554.209 426.277L469.356 341.424ZM526.822 389.974C506.03 371.458 480.251 358.399 451.807 352.956L429.253 470.817C435.965 472.101 442.064 475.18 447.016 479.59L526.822 389.974ZM500.216 405.754C499.401 397.819 502.018 389.807 508.01 383.815L423.157 298.962C390.582 331.537 376.494 375.673 380.844 418.018L500.216 405.754ZM508.01 383.815L554.209 337.616L469.356 252.763L423.157 298.962L508.01 383.815Z" fill="url(#paint3_linear_1517_2326)" fill-opacity="0.2" mask="url(#path-11-outside-2_1517_2326)"/>
<mask id="path-13-inside-3_1517_2326" fill="white">
<path d="M583.035 609.68C565.451 606.315 549.508 598.243 536.645 586.785C534.362 605.403 526.074 623.425 511.783 637.716C497.496 623.43 489.21 605.416 486.962 586.818C474.055 598.244 458.111 606.305 440.525 609.653C437.947 634.82 446.3 660.895 465.584 680.178L511.783 726.377L557.981 680.178C577.264 660.895 585.617 634.82 583.035 609.68Z"/>
<path d="M681.178 464.585L677.696 461.286C658.822 444.354 634.336 437.101 610.68 439.527C607.317 457.107 599.248 473.048 587.783 485.92C606.402 488.204 624.424 496.492 638.716 510.783C624.424 525.075 606.402 533.363 587.816 535.597C599.238 548.497 607.306 564.432 610.652 582.041C635.819 584.618 661.894 576.265 681.178 556.982L727.376 510.783L681.178 464.585Z"/>
<path d="M413.083 440.548L412.912 439.526C387.745 436.948 361.671 445.301 342.388 464.585L296.188 510.783L342.388 556.982L345.869 560.28C364.743 577.212 389.229 584.466 412.882 582.035C416.246 564.432 424.319 548.499 435.782 535.647C417.164 533.363 399.141 525.075 384.849 510.783C399.136 496.497 417.149 488.21 435.746 485.974C424.542 473.322 416.56 457.752 413.083 440.548Z"/>
<path d="M557.981 341.388L511.783 295.189L465.584 341.388C446.3 360.672 437.947 386.746 440.53 411.886C458.108 415.25 474.047 423.319 486.919 434.782C489.203 416.164 497.491 398.142 511.783 383.85C526.074 398.142 534.362 416.164 536.591 434.759C549.501 423.327 565.448 415.263 583.04 411.913C585.617 386.746 577.264 360.672 557.981 341.388Z"/>
</mask>
<path d="M583.035 609.68C565.451 606.315 549.508 598.243 536.645 586.785C534.362 605.403 526.074 623.425 511.783 637.716C497.496 623.43 489.21 605.416 486.962 586.818C474.055 598.244 458.111 606.305 440.525 609.653C437.947 634.82 446.3 660.895 465.584 680.178L511.783 726.377L557.981 680.178C577.264 660.895 585.617 634.82 583.035 609.68Z" fill="#16FD73"/>
<path d="M681.178 464.585L677.696 461.286C658.822 444.354 634.336 437.101 610.68 439.527C607.317 457.107 599.248 473.048 587.783 485.92C606.402 488.204 624.424 496.492 638.716 510.783C624.424 525.075 606.402 533.363 587.816 535.597C599.238 548.497 607.306 564.432 610.652 582.041C635.819 584.618 661.894 576.265 681.178 556.982L727.376 510.783L681.178 464.585Z" fill="#16FD73"/>
<path d="M413.083 440.548L412.912 439.526C387.745 436.948 361.671 445.301 342.388 464.585L296.188 510.783L342.388 556.982L345.869 560.28C364.743 577.212 389.229 584.466 412.882 582.035C416.246 564.432 424.319 548.499 435.782 535.647C417.164 533.363 399.141 525.075 384.849 510.783C399.136 496.497 417.149 488.21 435.746 485.974C424.542 473.322 416.56 457.752 413.083 440.548Z" fill="#16FD73"/>
<path d="M557.981 341.388L511.783 295.189L465.584 341.388C446.3 360.672 437.947 386.746 440.53 411.886C458.108 415.25 474.047 423.319 486.919 434.782C489.203 416.164 497.491 398.142 511.783 383.85C526.074 398.142 534.362 416.164 536.591 434.759C549.501 423.327 565.448 415.263 583.04 411.913C585.617 386.746 577.264 360.672 557.981 341.388Z" fill="#16FD73"/>
<path d="M590.073 585.225L589.539 585.169L588.804 592.13L589.338 592.187L590.073 585.225ZM536.645 586.785L541.302 581.558C539.357 579.826 536.613 579.316 534.176 580.235C531.74 581.153 530.015 583.348 529.697 585.932L536.645 586.785ZM583.035 609.68L589.998 608.965C589.682 605.89 587.386 603.386 584.35 602.805L583.035 609.68ZM557.981 680.178L553.031 675.229L553.031 675.229L557.981 680.178ZM511.783 726.377L506.833 731.327C509.567 734.06 513.999 734.06 516.732 731.327L511.783 726.377ZM465.584 680.178L460.634 685.128L460.634 685.128L465.584 680.178ZM440.525 609.653L439.215 602.777C436.176 603.356 433.876 605.862 433.561 608.94L440.525 609.653ZM486.962 586.818L493.912 585.978C493.6 583.395 491.88 581.198 489.448 580.274C487.015 579.35 484.271 579.852 482.323 581.577L486.962 586.818ZM511.783 637.716L506.833 642.666C509.567 645.4 513.999 645.4 516.732 642.666L511.783 637.716ZM677.696 461.286L682.51 456.204C682.464 456.161 682.417 456.118 682.37 456.076L677.696 461.286ZM681.178 464.585L686.128 459.635C686.083 459.59 686.038 459.546 685.992 459.503L681.178 464.585ZM727.376 510.783L732.326 515.733C735.06 512.999 735.06 508.567 732.326 505.834L727.376 510.783ZM681.178 556.982L686.127 561.932L686.127 561.932L681.178 556.982ZM610.652 582.041L603.775 583.348C604.353 586.389 606.86 588.689 609.939 589.004L610.652 582.041ZM587.816 535.597L586.981 528.647C584.396 528.958 582.198 530.677 581.273 533.111C580.348 535.544 580.85 538.289 582.576 540.238L587.816 535.597ZM638.716 510.783L643.666 515.733C644.978 514.42 645.716 512.64 645.716 510.783C645.716 508.927 644.978 507.146 643.666 505.834L638.716 510.783ZM587.783 485.92L582.556 481.264C580.824 483.209 580.315 485.953 581.233 488.39C582.152 490.826 584.347 492.551 586.931 492.868L587.783 485.92ZM610.68 439.527L609.966 432.564C606.89 432.879 604.386 435.175 603.805 438.212L610.68 439.527ZM412.912 439.526L419.818 438.377C419.3 435.265 416.764 432.884 413.626 432.562L412.912 439.526ZM413.083 440.548L406.177 441.697C406.191 441.777 406.205 441.856 406.221 441.935L413.083 440.548ZM435.746 485.974L436.582 492.924C439.166 492.613 441.365 490.894 442.29 488.461C443.214 486.028 442.712 483.282 440.987 481.334L435.746 485.974ZM384.849 510.783L379.9 505.834C377.166 508.567 377.166 512.999 379.9 515.733L384.849 510.783ZM435.782 535.647L441.006 540.306C442.74 538.362 443.251 535.617 442.333 533.179C441.415 530.742 439.219 529.016 436.634 528.699L435.782 535.647ZM412.882 582.035L413.598 588.999C416.674 588.683 419.178 586.386 419.758 583.349L412.882 582.035ZM345.869 560.28L341.055 565.362C341.101 565.406 341.148 565.449 341.195 565.491L345.869 560.28ZM342.388 556.982L337.438 561.932C337.482 561.976 337.528 562.02 337.573 562.064L342.388 556.982ZM296.188 510.783L291.239 505.834C289.926 507.146 289.188 508.927 289.188 510.783C289.188 512.64 289.926 514.42 291.239 515.733L296.188 510.783ZM342.388 464.585L347.337 469.534L347.337 469.534L342.388 464.585ZM511.783 295.189L516.732 290.24C513.999 287.506 509.567 287.506 506.833 290.24L511.783 295.189ZM557.981 341.388L553.031 346.338L553.031 346.338L557.981 341.388ZM583.04 411.913L584.349 418.79C587.389 418.211 589.688 415.705 590.003 412.627L583.04 411.913ZM536.591 434.759L529.641 435.592C529.95 438.177 531.669 440.377 534.103 441.302C536.536 442.227 539.282 441.726 541.232 440L536.591 434.759ZM511.783 383.85L516.732 378.901C513.999 376.167 509.567 376.167 506.833 378.901L511.783 383.85ZM486.919 434.782L482.264 440.01C484.208 441.741 486.953 442.25 489.389 441.332C491.825 440.413 493.55 438.218 493.867 435.634L486.919 434.782ZM440.53 411.886L433.567 412.602C433.883 415.677 436.178 418.18 439.214 418.762L440.53 411.886ZM465.584 341.388L460.634 336.438L460.634 336.438L465.584 341.388ZM531.989 592.011C545.776 604.293 562.868 612.948 581.719 616.555L584.35 602.805C568.035 599.683 553.24 592.192 541.302 581.558L531.989 592.011ZM576.071 610.396C578.448 633.528 570.764 657.496 553.031 675.229L562.931 685.128C583.765 664.294 592.787 636.112 589.998 608.965L576.071 610.396ZM553.031 675.229L506.833 721.427L516.732 731.327L562.931 685.128L553.031 675.229ZM516.732 721.427L470.533 675.229L460.634 685.128L506.833 731.327L516.732 721.427ZM470.533 675.229C452.801 657.497 445.116 633.529 447.488 610.366L433.561 608.94C430.778 636.111 439.799 664.293 460.634 685.128L470.533 675.229ZM441.834 616.53C460.691 612.939 477.777 604.298 491.602 592.06L482.323 581.577C470.332 592.191 455.532 599.67 439.215 602.777L441.834 616.53ZM480.013 587.658C482.442 607.762 491.405 627.238 506.833 642.666L516.732 632.766C503.588 619.622 495.977 603.07 493.912 585.978L480.013 587.658ZM516.732 642.666C532.167 627.231 541.126 607.75 543.593 587.637L529.697 585.932C527.597 603.055 519.981 619.618 506.833 632.766L516.732 642.666ZM672.882 466.368L676.364 469.667L685.992 459.503L682.51 456.204L672.882 466.368ZM676.228 469.534L722.426 515.733L732.326 505.834L686.128 459.635L676.228 469.534ZM722.426 505.834L676.228 552.032L686.127 561.932L732.326 515.733L722.426 505.834ZM676.228 552.032C658.496 569.764 634.528 577.449 611.365 575.077L609.939 589.004C637.111 591.787 665.293 582.767 686.127 561.932L676.228 552.032ZM617.529 580.734C613.941 561.852 605.291 544.773 593.057 530.957L582.576 540.238C593.186 552.221 600.671 567.013 603.775 583.348L617.529 580.734ZM588.652 542.547C608.747 540.131 628.232 531.167 643.666 515.733L633.766 505.834C620.616 518.983 604.057 526.594 586.981 528.647L588.652 542.547ZM643.666 505.834C628.23 490.399 608.749 481.439 588.635 478.972L586.931 492.868C604.054 494.968 620.617 502.584 633.766 515.733L643.666 505.834ZM593.011 490.576C605.298 476.779 613.949 459.69 617.555 440.843L603.805 438.212C600.684 454.524 593.197 469.316 582.556 481.264L593.011 490.576ZM611.394 446.491C633.164 444.258 655.672 450.933 673.021 466.497L682.37 456.076C661.971 437.776 635.509 429.944 609.966 432.564L611.394 446.491ZM406.007 440.674L406.177 441.697L419.988 439.4L419.818 438.377L406.007 440.674ZM406.221 441.935C409.949 460.38 418.507 477.065 430.506 490.615L440.987 481.334C430.578 469.579 423.17 455.124 419.944 439.162L406.221 441.935ZM434.91 479.024C414.804 481.442 395.328 490.406 379.9 505.834L389.799 515.733C402.943 502.589 419.494 494.979 436.582 492.924L434.91 479.024ZM379.9 515.733C395.335 531.168 414.816 540.127 434.93 542.595L436.634 528.699C419.511 526.598 402.948 518.982 389.799 505.834L379.9 515.733ZM430.558 530.987C418.269 544.766 409.613 561.848 406.007 580.722L419.758 583.349C422.879 567.015 430.369 552.233 441.006 540.306L430.558 530.987ZM412.167 575.072C390.401 577.309 367.893 570.634 350.544 555.07L341.195 565.491C361.594 583.791 388.056 591.623 413.598 588.999L412.167 575.072ZM350.684 555.199L347.202 551.9L337.573 562.064L341.055 565.362L350.684 555.199ZM347.337 552.032L301.138 505.834L291.239 515.733L337.438 561.932L347.337 552.032ZM301.138 515.733L347.337 469.534L337.438 459.635L291.239 505.834L301.138 515.733ZM347.337 469.534C365.069 451.802 389.037 444.117 412.199 446.489L413.626 432.562C386.454 429.779 358.273 438.8 337.438 459.635L347.337 469.534ZM506.833 300.139L553.031 346.338L562.931 336.438L516.732 290.24L506.833 300.139ZM553.031 346.338C570.763 364.07 578.448 388.038 576.076 411.2L590.003 412.627C592.786 385.455 583.766 357.273 562.931 336.438L553.031 346.338ZM581.731 405.037C562.868 408.628 545.778 417.274 531.95 429.518L541.232 440C553.224 429.38 568.027 421.898 584.349 418.79L581.731 405.037ZM543.541 433.926C541.131 413.82 532.166 394.334 516.732 378.901L506.833 388.8C519.983 401.95 527.593 418.508 529.641 435.592L543.541 433.926ZM506.833 378.901C491.398 394.335 482.439 413.816 479.971 433.93L493.867 435.634C495.968 418.512 503.584 401.948 516.732 388.8L506.833 378.901ZM491.575 429.554C477.778 417.268 460.691 408.617 441.846 405.011L439.214 418.762C455.525 421.883 470.316 429.369 482.264 440.01L491.575 429.554ZM447.493 411.171C445.117 388.038 452.801 364.071 470.533 346.338L460.634 336.438C439.8 357.273 430.778 385.454 433.567 412.602L447.493 411.171ZM470.533 346.338L516.732 300.139L506.833 290.24L460.634 336.438L470.533 346.338Z" fill="url(#paint4_linear_1517_2326)" fill-opacity="0.6" mask="url(#path-13-inside-3_1517_2326)"/>
<circle cx="512" cy="512" r="44" fill="#14E468"/>
<circle cx="512" cy="512" r="94" stroke="black" stroke-opacity="0.1" stroke-width="100"/>
</g>
<defs>
<filter id="filter0_f_1517_2326" x="-24" y="-84" width="1072" height="1072" filterUnits="userSpaceOnUse" color-interpolation-filters="sRGB">
<feFlood flood-opacity="0" result="BackgroundImageFix"/>
<feBlend mode="normal" in="SourceGraphic" in2="BackgroundImageFix" result="shape"/>
<feGaussianBlur stdDeviation="67" result="effect1_foregroundBlur_1517_2326"/>
</filter>
<filter id="filter1_f_1517_2326" x="-24" y="56" width="1072" height="1072" filterUnits="userSpaceOnUse" color-interpolation-filters="sRGB">
<feFlood flood-opacity="0" result="BackgroundImageFix"/>
<feBlend mode="normal" in="SourceGraphic" in2="BackgroundImageFix" result="shape"/>
<feGaussianBlur stdDeviation="67" result="effect1_foregroundBlur_1517_2326"/>
</filter>
<filter id="filter2_f_1517_2326" x="46" y="46" width="932" height="932" filterUnits="userSpaceOnUse" color-interpolation-filters="sRGB">
<feFlood flood-opacity="0" result="BackgroundImageFix"/>
<feBlend mode="normal" in="SourceGraphic" in2="BackgroundImageFix" result="shape"/>
<feGaussianBlur stdDeviation="32" result="effect1_foregroundBlur_1517_2326"/>
</filter>
<filter id="filter3_f_1517_2326" x="149.254" y="149.254" width="725.492" height="725.491" filterUnits="userSpaceOnUse" color-interpolation-filters="sRGB">
<feFlood flood-opacity="0" result="BackgroundImageFix"/>
<feBlend mode="normal" in="SourceGraphic" in2="BackgroundImageFix" result="shape"/>
<feGaussianBlur stdDeviation="12" result="effect1_foregroundBlur_1517_2326"/>
</filter>
<filter id="filter4_i_1517_2326" x="294" y="293" width="435.565" height="449.565" filterUnits="userSpaceOnUse" color-interpolation-filters="sRGB">
<feFlood flood-opacity="0" result="BackgroundImageFix"/>
<feBlend mode="normal" in="SourceGraphic" in2="BackgroundImageFix" result="shape"/>
<feColorMatrix in="SourceAlpha" type="matrix" values="0 0 0 0 0 0 0 0 0 0 0 0 0 0 0 0 0 0 127 0" result="hardAlpha"/>
<feOffset dy="14"/>
<feGaussianBlur stdDeviation="7"/>
<feComposite in2="hardAlpha" operator="arithmetic" k2="-1" k3="1"/>
<feColorMatrix type="matrix" values="0 0 0 0 0 0 0 0 0 0 0 0 0 0 0 0 0 0 0.35 0"/>
<feBlend mode="normal" in2="shape" result="effect1_innerShadow_1517_2326"/>
</filter>
<linearGradient id="paint0_linear_1517_2326" x1="512" y1="0" x2="512" y2="1024" gradientUnits="userSpaceOnUse">
<stop stop-color="#162828"/>
<stop offset="1"/>
</linearGradient>
<linearGradient id="paint1_linear_1517_2326" x1="512" y1="50" x2="512" y2="854" gradientUnits="userSpaceOnUse">
<stop stop-color="white"/>
<stop offset="1"/>
</linearGradient>
<linearGradient id="paint2_linear_1517_2326" x1="1316" y1="994" x2="1316" y2="1798" gradientUnits="userSpaceOnUse">
<stop stop-color="white"/>
<stop offset="1"/>
</linearGradient>
<linearGradient id="paint3_linear_1517_2326" x1="511.782" y1="295.189" x2="511.782" y2="726.377" gradientUnits="userSpaceOnUse">
<stop stop-color="#060606"/>
<stop offset="1" stop-color="#0C2F0B"/>
</linearGradient>
<linearGradient id="paint4_linear_1517_2326" x1="511.782" y1="295.189" x2="511.782" y2="726.377" gradientUnits="userSpaceOnUse">
<stop stop-color="#AFFFAD"/>
<stop offset="1" stop-color="#0C2F0B"/>
</linearGradient>
<clipPath id="clip0_1517_2326">
<rect width="1024" height="1024" rx="260" fill="white"/>
</clipPath>
</defs>
</svg>
