<svg width="1024" height="1024" viewBox="0 0 1024 1024" fill="none" xmlns="http://www.w3.org/2000/svg">
<path d="M729.475 636.554C728.777 617.612 724.048 599.7 716.119 583.651L711.977 587.78C700.632 599.125 687.702 607.957 673.862 614.24C685.029 637.221 691.293 663.025 691.293 690.293C664.026 690.293 638.221 684.029 615.275 672.88C609.616 685.275 601.918 696.967 592.181 707.449L588.78 710.977L584.651 715.119C602.077 723.728 621.7 728.565 642.452 728.565H729.565V641.452L729.475 636.554Z" fill="#64D262"/>
<path d="M311.589 587.78L307.447 583.651C298.838 601.078 294 620.7 294 641.452V728.565H381.113C401.865 728.565 421.488 723.728 438.914 715.119L434.785 710.977C423.423 699.615 414.591 686.681 408.325 672.861C385.344 684.029 359.54 690.293 332.272 690.293C332.272 662.965 338.564 637.106 349.777 614.121C339.087 609.249 328.881 602.871 319.468 594.983L315.631 591.643L311.589 587.78Z" fill="#64D262"/>
<path d="M438.914 306.447C421.488 297.838 401.865 293 381.113 293H294V380.113L294.09 385.012C294.788 403.953 299.518 421.865 307.447 437.914L311.589 433.785C322.933 422.44 335.863 413.608 349.704 407.325C338.536 384.344 332.272 358.54 332.272 331.272C359.54 331.272 385.344 337.536 408.29 348.685C413.949 336.29 421.647 324.599 431.384 314.116L434.785 310.588L438.914 306.447Z" fill="#64D262"/>
<path d="M729.565 380.113V293H642.452C621.7 293 602.077 297.838 584.651 306.447L588.78 310.588C600.142 321.95 608.974 334.884 615.24 348.704C638.221 337.536 664.026 331.272 691.293 331.272C691.293 358.6 685.001 384.459 673.789 407.444C684.479 412.316 694.685 418.694 704.097 426.582L707.935 429.923L711.977 433.785L716.119 437.914C724.728 420.488 729.565 400.865 729.565 380.113Z" fill="#64D262"/>
</svg>
