<svg width="500" height="500" viewBox="0 0 500 500" fill="none" xmlns="http://www.w3.org/2000/svg">
<g clip-path="url(#clip0_949_417)">
<path d="M417.079 271.409C402.893 295.2 389.339 316.079 372.239 332.42C367.937 336.536 363.403 340.48 358.33 343.564C355.339 345.379 352.193 346.882 349.047 348.384C344.283 350.67 339.302 351.937 334.044 351.53C318.501 350.341 303.991 342.249 292.904 331.152C288.525 326.769 283.93 322.262 280.029 317.425C274.771 310.899 269.497 305.029 265.087 297.892C247.092 268.858 233.955 237.805 214.187 211.228C200.818 193.291 183.825 172.303 161.806 169.704C147.682 168.045 133.187 173.132 121.885 181.866C109.626 191.351 101.577 203.136 92.6797 214.39L82.7186 229.525L78.3086 235.849" stroke="url(#paint0_linear_949_417)" stroke-width="0.5" stroke-miterlimit="10"/>
<path d="M422.646 260.594C416 244.801 406.008 231.372 397.249 221.089C384.698 206.361 372.655 198.159 359.425 199.427C344.684 200.851 334.029 213.639 322.017 228.054C313.49 238.29 306.905 254.036 299.751 266.698C290.314 283.414 281.201 296.264 278.379 299.16C271.579 306.125 252.983 325.157 237.101 320.571C228.265 318.02 215.806 306.86 215.22 306.297C212.46 303.636 209.715 300.96 207.248 298.017C203.547 293.619 200.494 288.689 197.457 283.79C195.19 280.143 192.923 276.48 190.826 272.74C186.94 265.775 183.641 258.497 179.971 251.406C177.164 246.007 173.772 240.904 170.38 235.849C163.317 225.299 156.81 217.16 148.838 209.82C146.063 207.253 143.102 204.827 139.756 203.105C132.54 199.38 123.812 199.177 116.102 201.681C108.377 204.185 100.775 209.225 95.332 215.329L83.4435 229.009L79.2339 234.628" stroke="url(#paint1_linear_949_417)" stroke-width="0.5" stroke-miterlimit="10"/>
<path d="M422.63 260.297C417.203 272.974 407.75 288.251 393.225 299.488C387.473 303.934 382.77 306.234 377.42 306.281C368.646 306.36 359.687 298.111 354.892 293.212C343.527 281.599 333.798 261.502 324.268 244.488C318.532 234.252 311.532 227.444 309.034 225.158C303.883 220.416 299.859 217.348 295.094 215.877C292.257 215 290.036 214.922 289.512 214.891C289.512 214.891 282.65 214.593 274.817 219.289C271.533 221.261 266.167 226.16 260.431 233.172C254.648 240.231 245.551 256.118 237.733 271.879C233.4 279.251 231.226 282.381 223.161 292.101C220.247 295.607 210.995 304.935 200.14 305.593C185.769 306.485 173.572 292.007 166.71 281.442C162.331 274.696 162.762 275.917 152.678 256.822C147.543 247.118 141.591 234.612 129.918 224.532C123.828 219.273 120.327 216.253 114.699 215.486C102.071 213.748 89.7656 224.845 84.3071 229.776C81.8399 231.998 79.9279 234.049 78.6172 235.551" stroke="url(#paint2_linear_949_417)" stroke-width="0.5" stroke-miterlimit="10"/>
<path d="M78.4009 235.755C80.7447 233.751 85.2781 230.214 89.1484 227.835C91.1375 226.614 96.2877 223.452 102.517 223.969C107.791 224.407 111.677 227.303 115.238 230.496C124.012 238.384 129.779 246.335 135.793 258.199C140.959 268.388 144.15 273.804 147.327 278.124C149.532 281.145 151.228 283.477 154.05 286.263C158.383 290.536 164.612 296.656 172.646 296.577C176.609 296.53 179.708 295.388 182.484 293.337C190.625 287.343 196.053 281.379 199.168 276.136C199.862 274.962 200.463 274.148 206.939 262.316C215.235 247.133 214.819 247.713 215.574 246.476C229.036 224.391 244.224 223.859 244.224 223.859C260.184 223.828 273.645 249.528 279.304 260.375C279.612 260.97 281.185 264.037 283.637 268.044C283.637 268.044 286.027 271.957 288.448 275.353C293.536 282.475 303.328 296.17 314.692 296.796C324.083 297.313 332.255 289.424 338.994 279.892C347.49 267.872 347.567 264.695 357.929 248.307C366.286 235.082 374.582 224.063 385.576 223.781C391.559 223.625 396.586 226.724 399.762 229.431C402.785 232.014 404.358 233.626 405.483 234.659C409.616 238.431 412.021 241.843 414.581 244.848" stroke="url(#paint3_linear_949_417)" stroke-width="0.5" stroke-miterlimit="10"/>
<path d="M78.4009 235.755C81.161 234.017 83.5819 232.843 85.3552 232.061C87.0976 231.31 88.2849 230.793 89.9502 230.402C89.9502 230.402 93.5738 229.541 97.2283 230.026C102.918 230.777 107.251 235.019 109.41 237.335C115.531 243.894 118.708 249.7 124.074 259.201C133.372 275.682 135.978 279.736 141.097 283.931C145.584 287.609 148.884 290.317 153.664 290.504C164.751 290.943 173.849 277.529 178.475 270.736C181.235 266.667 183.101 262.989 184.319 260.297C189.191 249.544 193.108 244.958 195.775 241.906C200.078 236.96 206.307 229.791 214.202 229.791C224.533 229.791 232.521 242.062 238.627 251.453C242.035 256.681 240.94 256.337 246.938 266.338C254.386 278.781 258.133 282.741 262.373 285.731C266.274 288.485 269.004 290.395 272.936 290.63C283.729 291.287 292.457 278.593 296.913 272.098C300.938 266.229 299.242 266.823 307.321 253.018C312.055 244.927 315.494 239.871 321.153 235.316C325.008 232.202 327.182 230.449 330.544 229.963C339.549 228.633 347.536 237.695 351.653 242.375C353.812 244.833 354.228 245.709 365.238 264.882C370.928 274.806 373.904 279.861 379.578 284.494C382.986 287.28 386.131 289.847 390.511 290.457C403.201 292.226 413.779 276.856 414.519 275.729" stroke="url(#paint4_linear_949_417)" stroke-width="0.5" stroke-miterlimit="10"/>
</g>
<defs>
<linearGradient id="paint0_linear_949_417" x1="247.694" y1="169.392" x2="247.694" y2="351.606" gradientUnits="userSpaceOnUse">
<stop stop-color="#D1D1D6" stop-opacity="0.2"/>
<stop offset="1" stop-color="#D1D1D6"/>
</linearGradient>
<linearGradient id="paint1_linear_949_417" x1="250.94" y1="199.299" x2="250.94" y2="321.276" gradientUnits="userSpaceOnUse">
<stop stop-color="#D1D1D6" stop-opacity="0.2"/>
<stop offset="1" stop-color="#D1D1D6"/>
</linearGradient>
<linearGradient id="paint2_linear_949_417" x1="250.624" y1="214.887" x2="250.624" y2="306.282" gradientUnits="userSpaceOnUse">
<stop stop-color="#D1D1D6" stop-opacity="0.2"/>
<stop offset="1" stop-color="#D1D1D6"/>
</linearGradient>
<linearGradient id="paint3_linear_949_417" x1="246.491" y1="223.775" x2="246.491" y2="296.82" gradientUnits="userSpaceOnUse">
<stop stop-color="#D1D1D6" stop-opacity="0.2"/>
<stop offset="1" stop-color="#D1D1D6"/>
</linearGradient>
<linearGradient id="paint4_linear_949_417" x1="246.46" y1="229.791" x2="246.46" y2="290.654" gradientUnits="userSpaceOnUse">
<stop stop-color="#D1D1D6" stop-opacity="0.2"/>
<stop offset="1" stop-color="#D1D1D6"/>
</linearGradient>
<clipPath id="clip0_949_417">
<rect width="345" height="183" fill="white" transform="translate(78 169)"/>
</clipPath>
</defs>
</svg>
