<svg width="500" height="500" viewBox="0 0 500 500" fill="none" xmlns="http://www.w3.org/2000/svg">
<g clip-path="url(#clip0_949_104)">
<path d="M250.946 134.39C263.369 134.39 273.44 124.311 273.44 111.879C273.44 99.4457 263.369 89.3669 250.946 89.3669C238.523 89.3669 228.452 99.4457 228.452 111.879C228.452 124.311 238.523 134.39 250.946 134.39Z" stroke="url(#paint0_linear_949_104)" stroke-width="0.5" stroke-miterlimit="10"/>
<path d="M176.367 378.702L228.745 109.619" stroke="url(#paint1_linear_949_104)" stroke-width="0.5" stroke-miterlimit="10"/>
<path d="M323.648 377.939L272.956 107.08" stroke="url(#paint2_linear_949_104)" stroke-width="0.5" stroke-miterlimit="10"/>
<path d="M201.661 396.547L233.628 125.879" stroke="url(#paint3_linear_949_104)" stroke-width="0.5" stroke-miterlimit="10"/>
<path d="M299.409 396.606L267.662 126.7" stroke="url(#paint4_linear_949_104)" stroke-width="0.5" stroke-miterlimit="10"/>
<path d="M274.29 414.451L260.316 131.954" stroke="url(#paint5_linear_949_104)" stroke-width="0.5" stroke-miterlimit="10"/>
<path d="M225.504 415.052L240.784 131.587" stroke="url(#paint6_linear_949_104)" stroke-width="0.5" stroke-miterlimit="10"/>
<path d="M250.183 433V134.449" stroke="url(#paint7_linear_949_104)" stroke-width="0.5" stroke-miterlimit="10"/>
</g>
<defs>
<linearGradient id="paint0_linear_949_104" x1="250.946" y1="89.3669" x2="250.946" y2="134.39" gradientUnits="userSpaceOnUse">
<stop stop-color="#D1D1D6" stop-opacity="0.2"/>
<stop offset="1" stop-color="#D1D1D6"/>
</linearGradient>
<linearGradient id="paint1_linear_949_104" x1="202.556" y1="109.619" x2="202.556" y2="378.702" gradientUnits="userSpaceOnUse">
<stop stop-color="#D1D1D6" stop-opacity="0.2"/>
<stop offset="1" stop-color="#D1D1D6"/>
</linearGradient>
<linearGradient id="paint2_linear_949_104" x1="298.302" y1="107.08" x2="298.302" y2="377.939" gradientUnits="userSpaceOnUse">
<stop stop-color="#D1D1D6" stop-opacity="0.2"/>
<stop offset="1" stop-color="#D1D1D6"/>
</linearGradient>
<linearGradient id="paint3_linear_949_104" x1="217.644" y1="125.879" x2="217.644" y2="396.547" gradientUnits="userSpaceOnUse">
<stop stop-color="#D1D1D6" stop-opacity="0.2"/>
<stop offset="1" stop-color="#D1D1D6"/>
</linearGradient>
<linearGradient id="paint4_linear_949_104" x1="283.535" y1="126.7" x2="283.535" y2="396.606" gradientUnits="userSpaceOnUse">
<stop stop-color="#D1D1D6" stop-opacity="0.2"/>
<stop offset="1" stop-color="#D1D1D6"/>
</linearGradient>
<linearGradient id="paint5_linear_949_104" x1="267.303" y1="131.954" x2="267.303" y2="414.451" gradientUnits="userSpaceOnUse">
<stop stop-color="#D1D1D6" stop-opacity="0.2"/>
<stop offset="1" stop-color="#D1D1D6"/>
</linearGradient>
<linearGradient id="paint6_linear_949_104" x1="233.144" y1="131.587" x2="233.144" y2="415.052" gradientUnits="userSpaceOnUse">
<stop stop-color="#D1D1D6" stop-opacity="0.2"/>
<stop offset="1" stop-color="#D1D1D6"/>
</linearGradient>
<linearGradient id="paint7_linear_949_104" x1="250.683" y1="134.449" x2="250.683" y2="433" gradientUnits="userSpaceOnUse">
<stop stop-color="#D1D1D6" stop-opacity="0.2"/>
<stop offset="1" stop-color="#D1D1D6"/>
</linearGradient>
<clipPath id="clip0_949_104">
<rect width="148" height="344" fill="white" transform="translate(176 89)"/>
</clipPath>
</defs>
</svg>
