<svg width="500" height="500" viewBox="0 0 500 500" fill="none" xmlns="http://www.w3.org/2000/svg">
<g clip-path="url(#clip0_949_378)">
<path d="M174.997 289.778C174.399 289.904 173.806 289.561 173.304 289.213C172.615 288.735 171.961 288.215 171.307 287.686C170.101 286.708 168.899 285.705 167.881 284.53C166.826 283.315 165.98 281.934 164.986 280.668C163.993 279.403 162.802 278.223 161.311 277.613C160.891 277.442 160.429 277.487 159.978 277.417C159.248 277.301 158.448 277.195 157.814 277.573" stroke="url(#paint0_linear_949_378)" stroke-width="0.5" stroke-linecap="round" stroke-linejoin="bevel"/>
<path d="M159.096 192.877C161.732 191.148 162.538 187.926 162.781 184.795C163.222 179.099 162.148 173.291 159.689 168.128" stroke="url(#paint1_linear_949_378)" stroke-width="0.5" stroke-linecap="round" stroke-linejoin="bevel"/>
<path d="M163.456 213.451C165.949 210.678 167.419 208.339 169.614 205.324L171.875 202.224C173.355 200.192 174.835 198.16 176.315 196.129C179.133 192.262 181.952 188.395 184.77 184.528C185.074 184.967 185.373 185.4 185.677 185.839C185.88 186.131 186.093 186.449 186.103 186.802C186.113 187.084 185.991 187.356 185.875 187.619C183.771 192.206 181.212 196.592 179.27 201.251C178.485 203.136 178.804 202.577 177.76 204.961C177.233 206.161 175.23 210.643 171.566 215.387C170.597 216.637 169.685 217.686 168.154 218.276C166.831 218.78 165.696 218.734 164.92 218.633" stroke="url(#paint2_linear_949_378)" stroke-width="0.5" stroke-linecap="round" stroke-linejoin="bevel"/>
<path d="M164.53 293.287C164.581 292.324 165.113 291.406 165.904 290.837C166.695 290.267 167.703 290.045 168.671 290.166" stroke="url(#paint3_linear_949_378)" stroke-width="0.5" stroke-linecap="round" stroke-linejoin="bevel"/>
<path d="M275.972 91.9222C271.715 92.8549 262.52 94.1304 260.036 97.6947C259.468 98.5114 259.022 99.5045 259.22 100.478C259.494 101.834 260.872 102.65 262.16 103.18C266.717 105.05 271.73 105.408 276.631 105.922C279.627 106.235 282.612 106.613 285.598 106.991C289.136 107.44 290.56 107.586 292.568 107.873C295.665 108.317 298.326 108.781 299.618 109.023C305.65 110.157 312.589 112.143 316.862 113.701" stroke="url(#paint4_linear_949_378)" stroke-width="0.5" stroke-linecap="round" stroke-linejoin="bevel"/>
<path d="M227.525 109.96C226.187 110.339 224.286 110.858 222.096 111.765C220.92 112.254 219.744 112.738 218.568 113.227C216.556 114.059 214.544 114.896 212.618 115.909C210.899 116.812 208.172 118.294 205.41 120.472C201.892 123.245 198.516 125.901 196.742 130.61C196.494 131.266 195.566 133.867 195.571 137.376C195.571 138.762 195.592 140.995 196.545 143.481C198.004 147.302 200.772 149.435 203.605 151.608C204.411 152.228 207.077 154.214 210.904 155.782C213.14 156.7 215.385 157.315 216.607 157.647C218.462 158.156 219.825 158.439 220.464 158.575C224.514 159.442 227.631 160.526 231.053 161.6C240.44 164.549 241.89 164.236 248.768 166.52C250.963 167.251 253.305 167.947 263.108 172.479C283.454 181.881 287.484 184.937 290.449 187.906C293.592 191.052 295.862 194.445 296.126 194.843C297.342 196.678 299.167 199.461 300.541 203.489C301.631 206.68 301.95 209.221 302.183 211.142C303.055 218.386 301.94 224.068 301.534 225.933C301.063 228.086 300.049 230.793 298.017 236.198C297.084 238.678 295.619 242.57 293.495 247.44C289.825 255.854 289.07 256.011 286.211 262.514C283.114 269.557 281.411 275.269 280.017 280.003C278.578 284.883 277.219 289.491 276.165 295.908C275.091 302.432 274.888 307.453 274.66 313.064C274.492 317.178 274.345 321.03 274.66 326.223C274.908 330.316 275.334 333.467 275.831 337.132C276.489 342.007 277.204 346.056 277.757 348.954C278.177 350.895 278.593 352.841 279.014 354.782L293.581 342.375C292.284 339.461 290.713 335.519 289.314 330.72C288.31 327.276 287.093 323.031 286.551 317.481C286.389 315.837 286.049 311.673 286.718 304.323C287.327 297.648 288.528 290.938 290.571 283.34C292.725 275.314 295.675 264.344 302.376 251.947C304.804 247.455 308.073 242.132 310.917 234.045C312.453 229.674 313.335 226.009 313.765 224.053C314.465 220.877 315.159 217.736 315.357 213.809C315.468 211.611 315.59 205.884 313.598 198.901C312.731 195.871 310.734 189.136 305.143 182.497C301.869 178.61 298.848 176.517 294.007 173.17C292.395 172.056 286.14 167.806 276.008 163.425C271.689 161.559 272.323 162.114 258.343 157.012C246.523 152.702 243.583 151.396 241.515 150.433C240.05 149.752 235.909 147.398 227.616 142.689C225.239 141.338 221.949 139.428 219.075 135.778C216.516 132.521 216.48 130.661 216.561 129.783C216.607 129.294 216.865 127.343 219.658 124.787C223.13 121.611 227.119 120.613 229.623 120.038C239.148 117.87 246.817 117.427 247.876 117.371C253.898 117.054 258.617 116.807 265.125 117.457C267.29 117.674 274.974 118.521 284.635 121.621C290.155 123.396 296.567 125.503 303.891 130.282C305.235 131.16 308.859 133.595 313.015 137.446C316.062 140.264 320.882 144.792 324.988 151.935C328.556 158.141 329.93 163.43 331.349 168.925C332.936 175.045 333.468 179.673 334.03 184.745C335.075 194.157 335.891 201.558 334.451 211.142C333.463 217.716 331.765 222.954 330.518 226.796C328.409 233.299 326.28 237.942 325.495 239.621C323.979 242.852 322.509 245.55 321.308 247.617L325.804 250.677" stroke="url(#paint5_linear_949_378)" stroke-width="0.5" stroke-linecap="round" stroke-linejoin="bevel"/>
<path d="M173.355 226.422C173.826 227.164 174.303 227.9 174.774 228.641C175.306 229.467 175.92 230.36 176.873 230.612C177.871 230.874 178.895 230.34 179.737 229.75C181.217 228.706 182.509 227.411 183.548 225.933C184.339 224.814 184.978 223.599 185.611 222.384C186.635 220.428 187.654 218.472 188.668 216.511C189.018 215.835 189.367 215.16 189.722 214.484C190.447 213.093 191.172 211.696 191.897 210.305" stroke="url(#paint6_linear_949_378)" stroke-width="0.5" stroke-linecap="round" stroke-linejoin="bevel"/>
<path d="M197.639 242.984L239.548 261.844" stroke="url(#paint7_linear_949_378)" stroke-width="0.5" stroke-linecap="round" stroke-linejoin="bevel"/>
<path d="M196.524 267.147L179.99 271.619" stroke="url(#paint8_linear_949_378)" stroke-width="0.5" stroke-linecap="round" stroke-linejoin="bevel"/>
<path d="M191.896 413.081C195.191 413.49 198.415 413.616 202.754 412.97C206.337 412.436 209.009 411.569 210.504 411.075C213.753 410.001 216.227 408.786 221.047 406.401C223.668 405.106 225.371 404.188 228.797 402.61C232.356 400.967 234.332 400.195 236.801 400.463C238.246 400.619 238.463 400.977 240.106 401.093C241.763 401.209 243.208 400.962 246.33 399.953C251.536 398.28 254.141 397.438 256.366 395.91C257.755 394.952 258.749 394.025 260.685 393.51C262.064 393.142 262.515 393.354 264.37 392.88C266.296 392.386 266.539 391.963 268.182 391.489C269.317 391.161 269.865 391.171 273.266 390.985C276.408 390.813 277.98 390.728 279.237 390.607C281.563 390.385 283.196 390.052 285.461 389.593C289.268 388.827 289.354 388.56 296.516 386.689C301.002 385.515 301.717 385.424 302.994 384.542C305.037 383.135 305.301 381.94 307.44 379.742C309.776 377.338 312.072 376.082 313.917 375.069C315.322 374.298 319.726 372.024 325.986 371.278C328.769 370.945 329.722 371.011 331.435 371.152" stroke="url(#paint9_linear_949_378)" stroke-width="0.5" stroke-linecap="round" stroke-linejoin="bevel"/>
<path d="M243.684 248.232C243.066 242.338 243.644 237.625 244.242 234.549C245.235 229.478 246.665 226.917 247.151 226.095C248.728 223.418 250.492 221.724 251.404 220.867C253.812 218.593 255.383 217.111 258.004 216.526C258.571 216.4 262.17 215.659 265.495 217.751C267.68 219.122 268.638 221.018 269.632 222.979C271.005 225.691 271.365 228.031 271.644 229.987C272.364 234.978 271.644 238.9 271.421 239.999C270.514 244.506 268.745 247.607 267.285 250.122C265.561 253.082 265.288 252.759 261.02 258.577C258.739 261.687 256.965 264.51 253.411 270.147C251.739 272.809 250.806 274.366 250.279 276.711C249.833 278.702 250.051 279.594 249.498 281.939C248.87 284.59 247.876 286.456 247.263 287.61C245.727 290.494 244.034 292.258 235.63 300.627C231.687 304.555 229.603 306.601 226.121 308.971C224.676 309.954 223.424 310.695 222.542 311.194C223.333 311.229 224.393 311.325 225.624 311.567C226.653 311.769 228.28 312.102 230.034 312.964C230.566 313.226 232.898 314.416 234.895 316.901C235.914 318.171 236.918 319.86 238.053 324.075C238.737 326.621 239.563 330.412 239.959 336.527C240.136 339.24 240.258 342.95 240.06 347.386" stroke="url(#paint10_linear_949_378)" stroke-width="0.5" stroke-linecap="round" stroke-linejoin="bevel"/>
<path d="M251.029 239.898C251.009 238.431 251.196 235.28 253.351 232.467C254.299 231.227 255.677 229.432 257.994 229.256C259.849 229.115 261.892 230.032 262.839 231.666C263.027 231.988 263.615 233.102 263.042 236.384C262.561 239.142 261.653 241.164 260.923 242.711C259.094 246.578 257.984 248.277 256.478 251.146C255.551 252.925 254.263 255.542 252.945 258.879" stroke="url(#paint11_linear_949_378)" stroke-width="0.5" stroke-linecap="round" stroke-linejoin="bevel"/>
<path d="M247.263 287.61L261.126 298.359" stroke="url(#paint12_linear_949_378)" stroke-width="0.5" stroke-linecap="round" stroke-linejoin="bevel"/>
<path d="M252.241 271.987L220.931 285.034" stroke="url(#paint13_linear_949_378)" stroke-width="0.5" stroke-linecap="round" stroke-linejoin="bevel"/>
<path d="M184.258 314.915C184.491 315.615 185.125 317.158 186.655 318C187.907 318.691 189.18 318.595 190.462 318.418C195.774 317.692 198.927 316.175 198.927 316.175C201.142 315.111 204.031 313.503 209.364 309.44C215.517 304.751 215.329 304.101 219.942 301.02C222.999 298.984 223.794 298.792 227.135 296.392C230.075 294.28 232.325 292.369 234.043 290.781C235.762 289.198 237.054 288.019 238.555 286.153C239.705 284.727 240.871 283.26 241.839 281.046C242.747 278.979 243.101 277.129 243.253 275.869" stroke="url(#paint14_linear_949_378)" stroke-width="0.5" stroke-linecap="round" stroke-linejoin="bevel"/>
<path d="M301.864 385.202C293.541 390.506 284.478 394.418 279.404 395.073C274.498 395.709 271.608 395.25 265.876 397.019C261.319 398.426 257.862 400.332 253.594 402.686C248.976 405.227 248.951 405.701 243.983 408.352C240.78 410.062 237.987 411.534 234.018 412.955C230.13 414.347 226.668 415.128 225.295 415.436C221.194 416.348 220.91 416.056 218.356 416.852C214.742 417.977 212.177 419.529 210.408 420.618C208.735 421.647 206.596 423.638 204.325 425.69" stroke="url(#paint15_linear_949_378)" stroke-width="0.5" stroke-linecap="round" stroke-linejoin="bevel"/>
<path d="M264.979 406.19C266.53 405.57 270.438 402.782 273.119 402.141C274.406 401.834 276.459 401.4 280.732 400.952C286.43 400.352 287.058 400.669 290.485 400.271C291.422 400.16 296.121 399.58 301.692 397.549C304.181 396.641 307.257 395.043 313.411 391.847C316.123 390.44 317.476 389.734 318.971 388.867C323.285 386.362 323.954 385.5 327.097 384.018C328.399 383.402 330.538 382.409 333.514 381.719C336.489 381.028 337.969 380.942 339.758 380.998" stroke="url(#paint16_linear_949_378)" stroke-width="0.5" stroke-linecap="round" stroke-linejoin="bevel"/>
<path d="M152.193 254.821C151.655 252.396 154.443 249.295 156.719 245.817C160.247 240.412 159.102 239.344 162.751 234.484C163.501 233.48 164.272 232.568 164.931 230.985C166.112 228.137 165.944 225.505 165.767 223.816C165.149 217.832 163.511 214.6 161.91 208.646C160.936 205.022 160.521 202.41 159.897 198.478C159.431 195.539 158.463 189.287 158.387 181.639C158.28 170.659 160.07 161.968 161.068 157.804C163.638 147.065 167.531 138.858 170.288 133.801C173.477 127.948 178.642 118.672 188.724 109.799C199.839 100.014 210.915 96.0108 217.717 93.6313C232.178 88.5646 244.267 88.1412 249.235 88.126C251.744 88.121 262.262 88.1916 275.547 91.7912C292.963 96.5099 304.814 104.501 309.569 107.959C313.938 111.14 320.75 116.171 327.502 124.797C334.613 133.882 337.923 142.175 340.574 148.966C343.043 155.288 346.616 164.448 347.615 176.638C348.705 189.943 346.145 199.693 343.089 211.313C339.774 223.932 336.18 237.614 326.666 249.653C324.8 252.013 321.293 256.101 316.776 262.822C314.561 266.124 311.393 271.105 308.063 277.492C304.9 283.547 302.731 287.711 300.855 293.826C299.7 297.607 298.412 301.802 298.174 307.494C297.905 313.942 299.132 318.66 300.521 323.994C303.055 333.739 306.755 340.656 308.063 342.995C312.144 350.31 316.447 355.246 319.458 358.664C323.756 363.539 324.628 363.62 332.196 371.832C337.736 377.847 339.52 380.252 341.076 382.833C343.768 387.294 345.253 391.413 346.104 394.332C339.236 395.744 333.772 397.251 330.016 398.375C325.449 399.747 323.954 400.397 320.031 401.365C314.278 402.787 309.832 403.291 305.965 403.714C300.105 404.355 300.232 403.987 284.6 404.889C272.526 405.585 275.319 405.64 273.758 405.635C270.047 405.63 267.072 405.348 263.235 406.704C261.354 407.369 260.077 408.141 259.261 408.625C252.215 412.819 244.237 416.671 240.364 418.34C234.556 420.85 230.962 422.403 225.655 422.932C220.88 423.406 217.702 422.751 210.626 424.001C207.235 424.601 205.243 425.226 203.433 426.028C200.387 427.374 200.068 428.221 196.778 429.874C194.669 430.933 191.8 432.37 188.08 432.758C186.23 432.95 182.813 433.025 178.632 431.372C178.779 430.252 179.113 428.569 179.97 426.718C181.516 423.371 183.427 422.358 187.553 418.067C190.721 414.77 190.047 414.896 193.676 411.08C196.134 408.499 198.101 406.694 200.422 404.576C203.93 401.38 206.687 399.091 209.257 396.964C212.542 394.247 213.784 393.324 219.278 388.797C222.593 386.064 224.063 384.824 225.888 382.777C228.387 379.979 229.852 377.595 230.272 376.894C231.2 375.346 232.847 372.568 233.892 368.727C234.586 366.181 234.687 364.089 234.865 360.01C234.931 358.538 235.093 354.046 234.586 347.487C234.191 342.365 233.998 339.809 233.126 337.314C232.356 335.111 231.124 331.723 227.839 328.733C224.301 325.517 220.48 324.67 219.699 324.514C218.047 324.176 216.815 324.196 214.549 324.236C212.988 324.266 211.107 324.393 206.201 325.204C201.152 326.041 201.796 326.132 199.728 326.379C196.671 326.747 193.164 327.17 189.012 326.102C187.183 325.628 183.893 324.786 180.943 322.018C178.368 319.603 177.309 316.911 176.351 314.476C175.915 313.372 175.9 313.12 174.054 305.896C172.681 300.511 172.524 299.997 171.829 299.251C171.398 298.792 169.406 297.623 165.427 295.309C164.033 294.497 163.197 294.018 162.574 292.954C161.611 291.316 161.889 289.541 162.016 288.941C162.655 285.962 165.402 284.616 165.772 284.444C165.215 284.167 164.363 283.743 163.339 283.199C159.872 281.349 159.056 280.608 158.463 279.736C158.083 279.176 157.566 278.389 157.662 277.381C157.748 276.449 158.321 275.773 158.777 275.234C159.553 274.316 159.978 274.296 160.759 273.57C161.043 273.303 161.347 272.97 162.721 270.343C163.739 268.397 164.251 267.409 164.429 266.739C164.86 265.06 164.713 263.719 164.642 263.215C164.474 262.06 164.307 260.886 163.405 260.119C163.025 259.792 162.589 259.605 160.46 259.353C157.018 258.945 156.826 259.277 155.68 258.804C155.158 258.587 153.642 257.876 152.735 256.258C152.735 256.258 152.35 255.572 152.183 254.811L152.193 254.821Z" stroke="url(#paint17_linear_949_378)" stroke-width="0.5" stroke-linecap="round" stroke-linejoin="bevel"/>
<path d="M159.7 258.829C159.659 258.526 159.603 257.785 160.06 257.18C160.485 256.616 161.114 256.479 161.935 256.318C162.685 256.172 164.125 255.89 165.686 256.535C166.517 256.878 166.35 257.059 168.063 258.042C169.66 258.955 170.121 258.98 170.37 258.975C171.692 258.94 172.544 257.841 172.605 257.755C173.553 256.49 173.091 254.957 172.965 254.528C172.635 253.429 171.941 252.744 171.596 252.446" stroke="url(#paint18_linear_949_378)" stroke-width="0.5" stroke-linecap="round" stroke-linejoin="bevel"/>
<path d="M247.248 166.077C239.137 168.592 232.467 171.299 227.434 173.563C226.06 174.183 220.332 176.78 213.17 180.853C205.334 185.31 202.744 187.573 201.679 188.541C198.81 191.153 195.906 193.845 193.954 198.392C192.059 202.803 191.988 206.786 191.972 208.641C191.962 209.937 192.048 209.836 193.179 218.023C194.056 224.381 194.086 225.076 194.588 227.859C195.166 231.076 195.45 232.684 196.007 234.927C196.387 236.45 196.61 237.156 196.828 238.497C197.249 241.083 197.163 243.054 197.127 244.153C196.965 248.993 197.376 248.03 197.279 256.056C197.244 258.824 197.198 262.328 196.904 266.845C196.539 272.531 196.25 272.622 195.632 280.532C195.206 286.002 195.125 288.76 195.11 290.948C195.09 293.811 195.176 296.196 195.262 297.865L204.239 300.617" stroke="url(#paint19_linear_949_378)" stroke-width="0.5" stroke-linecap="round" stroke-linejoin="bevel"/>
<path d="M186.164 186.651C184.567 184.523 182.454 181.493 180.304 177.657C178.17 173.85 175.869 169.691 174.278 163.838C173.178 159.785 172.042 155.6 172.772 150.186C173.365 145.785 174.911 142.654 176.457 139.528C177.045 138.344 179.022 134.457 183.822 128.538C186.65 125.054 190.498 120.311 196.545 115.551C203.398 110.157 209.43 107.606 216.637 104.561C221.539 102.489 228.387 99.9532 236.897 97.9014" stroke="url(#paint20_linear_949_378)" stroke-width="0.5" stroke-linecap="round" stroke-linejoin="bevel"/>
</g>
<defs>
<linearGradient id="paint0_linear_949_378" x1="166.406" y1="277.309" x2="166.406" y2="289.805" gradientUnits="userSpaceOnUse">
<stop stop-color="#D1D1D6" stop-opacity="0.2"/>
<stop offset="1" stop-color="#D1D1D6"/>
</linearGradient>
<linearGradient id="paint1_linear_949_378" x1="160.987" y1="168.128" x2="160.987" y2="192.877" gradientUnits="userSpaceOnUse">
<stop stop-color="#D1D1D6" stop-opacity="0.2"/>
<stop offset="1" stop-color="#D1D1D6"/>
</linearGradient>
<linearGradient id="paint2_linear_949_378" x1="174.78" y1="184.528" x2="174.78" y2="218.698" gradientUnits="userSpaceOnUse">
<stop stop-color="#D1D1D6" stop-opacity="0.2"/>
<stop offset="1" stop-color="#D1D1D6"/>
</linearGradient>
<linearGradient id="paint3_linear_949_378" x1="166.601" y1="290.134" x2="166.601" y2="293.287" gradientUnits="userSpaceOnUse">
<stop stop-color="#D1D1D6" stop-opacity="0.2"/>
<stop offset="1" stop-color="#D1D1D6"/>
</linearGradient>
<linearGradient id="paint4_linear_949_378" x1="288.017" y1="91.9222" x2="288.017" y2="113.701" gradientUnits="userSpaceOnUse">
<stop stop-color="#D1D1D6" stop-opacity="0.2"/>
<stop offset="1" stop-color="#D1D1D6"/>
</linearGradient>
<linearGradient id="paint5_linear_949_378" x1="265.399" y1="109.96" x2="265.399" y2="354.782" gradientUnits="userSpaceOnUse">
<stop stop-color="#D1D1D6" stop-opacity="0.2"/>
<stop offset="1" stop-color="#D1D1D6"/>
</linearGradient>
<linearGradient id="paint6_linear_949_378" x1="182.626" y1="210.305" x2="182.626" y2="230.68" gradientUnits="userSpaceOnUse">
<stop stop-color="#D1D1D6" stop-opacity="0.2"/>
<stop offset="1" stop-color="#D1D1D6"/>
</linearGradient>
<linearGradient id="paint7_linear_949_378" x1="218.594" y1="242.984" x2="218.594" y2="261.844" gradientUnits="userSpaceOnUse">
<stop stop-color="#D1D1D6" stop-opacity="0.2"/>
<stop offset="1" stop-color="#D1D1D6"/>
</linearGradient>
<linearGradient id="paint8_linear_949_378" x1="188.257" y1="267.147" x2="188.257" y2="271.619" gradientUnits="userSpaceOnUse">
<stop stop-color="#D1D1D6" stop-opacity="0.2"/>
<stop offset="1" stop-color="#D1D1D6"/>
</linearGradient>
<linearGradient id="paint9_linear_949_378" x1="261.666" y1="371.036" x2="261.666" y2="413.421" gradientUnits="userSpaceOnUse">
<stop stop-color="#D1D1D6" stop-opacity="0.2"/>
<stop offset="1" stop-color="#D1D1D6"/>
</linearGradient>
<linearGradient id="paint10_linear_949_378" x1="247.249" y1="216.296" x2="247.249" y2="347.386" gradientUnits="userSpaceOnUse">
<stop stop-color="#D1D1D6" stop-opacity="0.2"/>
<stop offset="1" stop-color="#D1D1D6"/>
</linearGradient>
<linearGradient id="paint11_linear_949_378" x1="257.157" y1="229.242" x2="257.157" y2="258.879" gradientUnits="userSpaceOnUse">
<stop stop-color="#D1D1D6" stop-opacity="0.2"/>
<stop offset="1" stop-color="#D1D1D6"/>
</linearGradient>
<linearGradient id="paint12_linear_949_378" x1="254.194" y1="287.61" x2="254.194" y2="298.359" gradientUnits="userSpaceOnUse">
<stop stop-color="#D1D1D6" stop-opacity="0.2"/>
<stop offset="1" stop-color="#D1D1D6"/>
</linearGradient>
<linearGradient id="paint13_linear_949_378" x1="236.586" y1="271.987" x2="236.586" y2="285.034" gradientUnits="userSpaceOnUse">
<stop stop-color="#D1D1D6" stop-opacity="0.2"/>
<stop offset="1" stop-color="#D1D1D6"/>
</linearGradient>
<linearGradient id="paint14_linear_949_378" x1="213.756" y1="275.869" x2="213.756" y2="318.546" gradientUnits="userSpaceOnUse">
<stop stop-color="#D1D1D6" stop-opacity="0.2"/>
<stop offset="1" stop-color="#D1D1D6"/>
</linearGradient>
<linearGradient id="paint15_linear_949_378" x1="253.095" y1="385.202" x2="253.095" y2="425.69" gradientUnits="userSpaceOnUse">
<stop stop-color="#D1D1D6" stop-opacity="0.2"/>
<stop offset="1" stop-color="#D1D1D6"/>
</linearGradient>
<linearGradient id="paint16_linear_949_378" x1="302.368" y1="380.984" x2="302.368" y2="406.19" gradientUnits="userSpaceOnUse">
<stop stop-color="#D1D1D6" stop-opacity="0.2"/>
<stop offset="1" stop-color="#D1D1D6"/>
</linearGradient>
<linearGradient id="paint17_linear_949_378" x1="249.998" y1="88.1259" x2="249.998" y2="432.856" gradientUnits="userSpaceOnUse">
<stop stop-color="#D1D1D6" stop-opacity="0.2"/>
<stop offset="1" stop-color="#D1D1D6"/>
</linearGradient>
<linearGradient id="paint18_linear_949_378" x1="166.431" y1="252.446" x2="166.431" y2="258.975" gradientUnits="userSpaceOnUse">
<stop stop-color="#D1D1D6" stop-opacity="0.2"/>
<stop offset="1" stop-color="#D1D1D6"/>
</linearGradient>
<linearGradient id="paint19_linear_949_378" x1="219.61" y1="166.077" x2="219.61" y2="300.617" gradientUnits="userSpaceOnUse">
<stop stop-color="#D1D1D6" stop-opacity="0.2"/>
<stop offset="1" stop-color="#D1D1D6"/>
</linearGradient>
<linearGradient id="paint20_linear_949_378" x1="204.719" y1="97.9014" x2="204.719" y2="186.651" gradientUnits="userSpaceOnUse">
<stop stop-color="#D1D1D6" stop-opacity="0.2"/>
<stop offset="1" stop-color="#D1D1D6"/>
</linearGradient>
<clipPath id="clip0_949_378">
<rect width="196" height="345" fill="white" transform="translate(152 88)"/>
</clipPath>
</defs>
</svg>
